<svg version="1" xmlns="http://www.w3.org/2000/svg" width="682.667" height="682.667" viewBox="0 0 512.000000 512.000000"><path d="M137 79.7c-6.9 1.9-16.7 4.7-21.9 6.1l-9.4 2.7v92.4l-3.1.6c-1.7.4-4.4 1.1-6.1 1.6-1.6.5-16.3 4.5-32.5 8.8-16.2 4.3-31.3 8.7-33.5 9.9-5.6 2.8-11.1 8.6-14.3 15.1l-2.7 5.6v50.9c0 37 .3 51.8 1.1 54.3 2.6 7.6 10.6 12.1 19 10.9 2.1-.4 8-1.8 12.9-3.2 5-1.4 9.8-2.7 10.8-2.9 1-.2 10.9-2.9 22-5.9 11.1-3 26.5-7.1 34.2-9.1 7.7-2.1 21.4-5.8 30.4-8.2 9-2.5 17.3-4.6 18.4-4.9 1.1-.2 3.4-.8 5.1-1.4 1.7-.5 6.7-1.9 11.1-3 4.4-1.2 9.6-2.6 11.5-3.1 1.9-.5 4.4-1.2 5.4-1.4 1.9-.4 41.1-11 50.6-13.6 2.5-.7 5-1.3 5.5-1.5.6-.1 23.7-6.3 51.5-13.7 27.8-7.4 51.9-13.8 53.6-14.2l3.2-.6-.1 10.5c0 5.9.3 10.9.6 11.2.7.7 43.7-10.5 45.1-11.8.6-.4.9-5.7.9-11.7l-.2-11 5.2-1.4c20.7-5.8 40.1-10.7 40.5-10.3.4.5.6 35.2.3 43.2-.1 1.5-1 2.4-2.8 2.8-6.2 1.5-45.1 11.9-49.4 13.2-2.5.8-5.4 1.6-6.5 1.8-2 .4-85.1 22.6-103.4 27.6-20.6 5.7-37.5 10.2-39 10.5-1.7.4-16.6 4.3-27.5 7.3-3.8 1.1-20.9 5.6-37.9 10.2-17.1 4.5-31.5 8.4-32.2 8.7-.8.3-1.1-2.7-1.1-10.7 0-6-.2-11.2-.4-11.5-.5-.4-26.8 6.3-40.1 10.2-5.1 1.5-5.8 2-5.9 4.2 0 1.4-.1 12.7-.1 25.1-.1 18.7.2 23.2 1.5 26.3 2.9 6.7 10.5 11 17.7 10 1.9-.2 10-2.2 18-4.3 8-2.2 17-4.6 20-5.4 3-.8 25.8-6.9 50.5-13.5 24.8-6.6 49.5-13.3 55-14.7 5.5-1.4 11.4-3 13-3.5 6.9-2 17.9-5.1 19.4-5.4.9-.2 14.4-3.7 30-7.9 15.5-4.2 28.4-7.6 28.5-7.6.2 0 .2 20.3.2 45.1-.1 24.8.2 45.5.5 46 .3.6 5.2-.3 11.8-2.1 6.2-1.7 12-3.3 13-3.5.9-.2 4.3-1.1 7.6-2 3.3-1 7.8-2.2 10-2.7l4-1-.1-46.3-.1-46.2 12.1-3.2c6.6-1.7 20.4-5.4 30.6-8.1 10.2-2.8 19.4-5.3 20.5-5.5 12.5-2.8 21.5-9.4 26.3-19.4l2.7-5.6-.1-52c0-58 .3-55.6-7-61.2-6.1-4.6-10.9-3.9-49.9 6.6-48.7 13.2-43.4 11.8-151.5 40.7-11.3 3-22.7 6.1-25.5 6.8-11.5 3.2-39.4 10.7-41.1 11.1-1.1.2-17 4.4-35.4 9.4s-34 9.1-34.6 9.1c-.7 0-1.1-3.7-1.1-10.5 0-5.8-.3-10.8-.6-11.1-.7-.7-43.7 10.5-45.1 11.7-.5.4-.9 5.7-.9 11.7l.1 11-3.7 1.1c-11.4 3.5-41.4 11.2-41.8 10.7-.7-.7-.8-44.4-.1-45.1.3-.3 1.4-.7 2.4-.9 1.1-.2 6.3-1.6 11.7-3.1 5.3-1.4 10.5-2.8 11.5-3 .9-.2 15.9-4.2 33.2-8.9 17.3-4.6 51.1-13.7 75-20.1 66.1-17.7 96.5-25.8 131-35.1 17.3-4.7 32.2-8.7 33.1-8.9 1.4-.3 1.7.9 1.7 9.3 0 14.3-.1 13.5 2.5 12.8 1.2-.4 6.5-1.8 11.7-3.2 23.3-6.1 32-8.7 32.1-9.8.3-4.1-.1-48.5-.5-50.3-1.7-7.9-10.3-13.8-18.6-12.6-1.9.3-21 5.2-42.5 10.9-21.4 5.8-44.2 11.9-50.5 13.5-6.3 1.7-14.6 4-18.5 5-3.8 1.1-7.8 2.2-8.7 2.4-.9.2-16.2 4.3-33.9 9-17.7 4.8-32.7 8.8-33.3 8.9-.6.2-3.6 1-6.6 1.8-12.4 3.6-37 10-38.7 10.1-1.7.2-1.8-1.9-2-44.8-.1-24.8-.2-45.3-.2-45.8-.1-1-1.3-.8-15.1 3z"/></svg>