<svg width="1440" height="1024" xmlns="http://www.w3.org/2000/svg"><defs><linearGradient x1="43.536%" y1="100%" x2="43.536%" y2="0%" id="a"><stop stop-color="#F58F42" offset="0%"/><stop stop-color="#F8AE38" offset="35.861%"/><stop stop-color="#FFEB3B" offset="100%"/></linearGradient><linearGradient x1="46.644%" y1="106.505%" x2="41.153%" y2="0%" id="b"><stop stop-color="#F5943F" offset="0%"/><stop stop-color="#F37B57" offset="50.853%"/><stop stop-color="#F26873" offset="100%"/></linearGradient><linearGradient x1="51.307%" y1="31.381%" x2="52.996%" y2="95.165%" id="c"><stop stop-color="#CA439C" offset="0%"/><stop stop-color="#E44EB8" offset="43.633%"/><stop stop-color="#EF51B7" offset="100%"/></linearGradient><linearGradient x1="54.937%" y1="-14.387%" x2="54.937%" y2="136.974%" id="d"><stop stop-color="#AE3EA1" offset="0%"/><stop stop-color="#DB4691" offset="61.908%"/><stop stop-color="#C344A6" offset="100%"/></linearGradient><linearGradient x1="60.198%" y1="147.858%" x2="59.083%" y2="19.32%" id="e"><stop stop-color="#753DBC" offset="0%"/><stop stop-color="#A043BD" offset="60.935%"/><stop stop-color="#6E3EC2" offset="100%"/></linearGradient><linearGradient x1="57.145%" y1="0%" x2="59.741%" y2="136.675%" id="f"><stop stop-color="#3A84F8" offset="0%"/><stop stop-color="#5C48C9" offset="100%"/></linearGradient><linearGradient x1="48.023%" y1="106.106%" x2="46.171%" y2="19.541%" id="g"><stop stop-color="#4678F8" offset="0%"/><stop stop-color="#3A84F8" offset="51.059%"/><stop stop-color="#08AEEA" offset="100%"/></linearGradient><linearGradient x1="48.828%" y1="15.689%" x2="48.333%" y2="126.183%" id="h"><stop stop-color="#08AEEA" offset="0%"/><stop stop-color="#2AF598" offset="100%"/></linearGradient></defs><g fill="none" fill-rule="evenodd"><path d="M-395.1 792.25c182.711-43.342 273.854 48.422 368.012 0C88.23 732.943 218.08 708.385 382.04 753.285c231.723 63.455 286.725 113.201 484.56 0 33.362-19.09 117.237-62.808 251.627-131.156v496.74h-1740V883.492c54.731-37.965 130.289-68.38 226.671-91.243z" fill="url(#a)" transform="rotate(45 166.519 949.353)"/><path d="M1202.883 658.423c-199.356-13.375-365.823 30.32-499.4 131.085-200.367 151.148-291.672-19.424-494.502 0-202.83 19.425-232.297 79.125-368.73-28.931-100.445-79.553-226.234-97.717-377.368-54.492l1.206 378.843h1738.794V658.423z" fill="url(#b)" transform="rotate(-135 340.75 879.55)"/><path d="M1393.956 623.715c-71.78 73.368-178.711 115.976-320.79 127.824-183.507 15.302-264.232-44.706-406.041 49.66-141.81 94.366-170.308 111.85-357.224 27.585-115.63-52.128-288.19-22.415-386.131-52.128-105.223-31.92-195.16-66.64-269.814-104.16v444.79h1740" fill="url(#c)" transform="rotate(-135 475.86 823.586)"/><path d="M1649.559 673.858c-237.329 1.335-394.134 24.132-470.415 68.39-399.91 232.035-356.39 18.45-565.075 35.577-222.003 18.22-272.569-140.138-439.857-140.138-111.525 0-199.743 12.057-264.653 36.171v429.455h1740" fill="url(#d)" transform="rotate(-135 656.598 748.721)"/><path d="M633.323 820.432c103.725 70.515 109.795 99.074 318.541 1.854 86.861-40.455 169.12-40.455 284.629-40.455 82.448 0 173.143 22.496 272.93 22.496 66.525 0 170.874-45.87 313.046-137.61v427.862h-1740V646.42c19.448 32.197 78.76 63.96 177.937 95.289 148.765 46.993 269.191 8.207 372.917 78.722z" fill="url(#e)" transform="rotate(-135 778.863 698.077)"/><path d="M778.526 800.359c103.26 70.218 240.018-35.847 379.057-11.998 154.877 26.567 161.256 123.142 285.365 0 189.096-187.621 251.084-70.562 367.645-36.798 77.707 22.51 150.239 2.145 217.594-61.092v370.263H288.188V705.949c158.414-51.628 321.86-20.158 490.338 94.41z" fill="url(#f)" transform="rotate(-135 924.566 638.398)"/><path d="M758.27 757.59c182.831-34.116 167.64 95.034 339.25 95.911 216.052 1.104 265.248-100.032 491.888-38.573 204.934 55.572 254.539 31.768 452.503-57.338 33.383-15.026 85.945-51.485 157.685-109.376v444.572H459.93l-.334-295.629c102.67-8.381 202.23-21.57 298.674-39.567z" fill="url(#g)" transform="rotate(-135 1045.532 587.62)"/><path d="M975.07 837.395c154.848 31.865 137.665-185.135 441.292-50.466 168.947 74.934 323.811 7.81 433.921-25.527 132.508-40.117 210.856-56.547 311.977-51.772 123.433 5.83 218.607 16.656 285.521 32.48v290.063H708.115l-.334-290.063c85.518 44.452 174.614 76.213 267.29 95.285z" fill="url(#h)" transform="rotate(-135 1221.026 514.928)"/><g opacity=".2" style="mix-blend-mode:multiply"><path d="M-395.1 792.25c182.711-43.342 273.854 48.422 368.012 0C88.23 732.943 218.08 708.385 382.04 753.285c231.723 63.455 286.725 113.201 484.56 0 33.362-19.09 117.237-62.808 251.627-131.156v496.74h-1740V883.492c54.731-37.965 130.289-68.38 226.671-91.243z" fill="url(#a)" transform="rotate(45 166.066 950.447)"/><path d="M1202.883 658.423c-199.356-13.375-365.823 30.32-499.4 131.085-200.367 151.148-291.672-19.424-494.502 0-202.83 19.425-232.297 79.125-368.73-28.931-100.445-79.553-226.234-97.717-377.368-54.492l1.206 378.843h1738.794V658.423z" fill="url(#b)" transform="rotate(-135 341.203 879.738)"/><path d="M1393.956 623.715c-71.78 73.368-178.711 115.976-320.79 127.824-183.507 15.302-264.232-44.706-406.041 49.66-141.81 94.366-170.308 111.85-357.224 27.585-115.63-52.128-288.19-22.415-386.131-52.128-105.223-31.92-195.16-66.64-269.814-104.16v444.79h1740" fill="url(#c)" transform="rotate(-135 476.312 823.774)"/><path d="M1649.559 673.858c-237.329 1.335-394.134 24.132-470.415 68.39-399.91 232.035-356.39 18.45-565.075 35.577-222.003 18.22-272.569-140.138-439.857-140.138-111.525 0-199.743 12.057-264.653 36.171v429.455h1740" fill="url(#d)" transform="rotate(-135 657.05 748.91)"/><path d="M633.323 820.432c103.725 70.515 109.795 99.074 318.541 1.854 86.861-40.455 169.12-40.455 284.629-40.455 82.448 0 173.143 22.496 272.93 22.496 66.525 0 170.874-45.87 313.046-137.61v427.862h-1740V646.42c19.448 32.197 78.76 63.96 177.937 95.289 148.765 46.993 269.191 8.207 372.917 78.722z" fill="url(#e)" transform="rotate(-135 779.316 698.265)"/><path d="M778.526 800.359c103.26 70.218 240.018-35.847 379.057-11.998 154.877 26.567 161.256 123.142 285.365 0 189.096-187.621 251.084-70.562 367.645-36.798 77.707 22.51 150.239 2.145 217.594-61.092v370.263H288.188V705.949c158.414-51.628 321.86-20.158 490.338 94.41z" fill="url(#f)" transform="rotate(-135 925.02 638.586)"/><path d="M758.27 757.59c182.831-34.116 167.64 95.034 339.25 95.911 216.052 1.104 265.248-100.032 491.888-38.573 204.934 55.572 254.539 31.768 452.503-57.338 33.383-15.026 85.945-51.485 157.685-109.376v444.572H459.93l-.334-295.629c102.67-8.381 202.23-21.57 298.674-39.567z" fill="url(#g)" transform="rotate(-135 1045.986 587.807)"/><path d="M975.07 837.395c154.848 31.865 137.665-185.135 441.292-50.466 168.947 74.934 323.811 7.81 433.921-25.527 132.508-40.117 210.856-56.547 311.977-51.772 123.433 5.83 218.607 16.656 285.521 32.48v290.063H708.115l-.334-290.063c85.518 44.452 174.614 76.213 267.29 95.285z" fill="url(#h)" transform="rotate(-135 1221.48 515.115)"/></g><g opacity=".2" style="mix-blend-mode:overlay"><path d="M-395.1 792.25c182.711-43.342 273.854 48.422 368.012 0C88.23 732.943 218.08 708.385 382.04 753.285c231.723 63.455 286.725 113.201 484.56 0 33.362-19.09 117.237-62.808 251.627-131.156v496.74h-1740V883.492c54.731-37.965 130.289-68.38 226.671-91.243z" fill="url(#a)" transform="rotate(45 166.066 950.447)"/><path d="M1202.883 658.423c-199.356-13.375-365.823 30.32-499.4 131.085-200.367 151.148-291.672-19.424-494.502 0-202.83 19.425-232.297 79.125-368.73-28.931-100.445-79.553-226.234-97.717-377.368-54.492l1.206 378.843h1738.794V658.423z" fill="url(#b)" transform="rotate(-135 341.203 879.738)"/><path d="M1393.956 623.715c-71.78 73.368-178.711 115.976-320.79 127.824-183.507 15.302-264.232-44.706-406.041 49.66-141.81 94.366-170.308 111.85-357.224 27.585-115.63-52.128-288.19-22.415-386.131-52.128-105.223-31.92-195.16-66.64-269.814-104.16v444.79h1740" fill="url(#c)" transform="rotate(-135 476.312 823.774)"/><path d="M1649.559 673.858c-237.329 1.335-394.134 24.132-470.415 68.39-399.91 232.035-356.39 18.45-565.075 35.577-222.003 18.22-272.569-140.138-439.857-140.138-111.525 0-199.743 12.057-264.653 36.171v429.455h1740" fill="url(#d)" transform="rotate(-135 657.05 748.91)"/><path d="M633.323 820.432c103.725 70.515 109.795 99.074 318.541 1.854 86.861-40.455 169.12-40.455 284.629-40.455 82.448 0 173.143 22.496 272.93 22.496 66.525 0 170.874-45.87 313.046-137.61v427.862h-1740V646.42c19.448 32.197 78.76 63.96 177.937 95.289 148.765 46.993 269.191 8.207 372.917 78.722z" fill="url(#e)" transform="rotate(-135 779.316 698.265)"/><path d="M778.526 800.359c103.26 70.218 240.018-35.847 379.057-11.998 154.877 26.567 161.256 123.142 285.365 0 189.096-187.621 251.084-70.562 367.645-36.798 77.707 22.51 150.239 2.145 217.594-61.092v370.263H288.188V705.949c158.414-51.628 321.86-20.158 490.338 94.41z" fill="url(#f)" transform="rotate(-135 925.02 638.586)"/><path d="M758.27 757.59c182.831-34.116 167.64 95.034 339.25 95.911 216.052 1.104 265.248-100.032 491.888-38.573 204.934 55.572 254.539 31.768 452.503-57.338 33.383-15.026 85.945-51.485 157.685-109.376v444.572H459.93l-.334-295.629c102.67-8.381 202.23-21.57 298.674-39.567z" fill="url(#g)" transform="rotate(-135 1045.986 587.807)"/><path d="M975.07 837.395c154.848 31.865 137.665-185.135 441.292-50.466 168.947 74.934 323.811 7.81 433.921-25.527 132.508-40.117 210.856-56.547 311.977-51.772 123.433 5.83 218.607 16.656 285.521 32.48v290.063H708.115l-.334-290.063c85.518 44.452 174.614 76.213 267.29 95.285z" fill="url(#h)" transform="rotate(-135 1221.48 515.115)"/></g></g></svg>