<?xml version="1.0" encoding="UTF-8"?>
<svg width="67px" height="49px" viewBox="0 0 67 49" version="1.1" xmlns="http://www.w3.org/2000/svg" xmlns:xlink="http://www.w3.org/1999/xlink">
    <!-- Generator: Sketch 51.3 (57544) - http://www.bohemiancoding.com/sketch -->
    <title>Mask</title>
    <desc>Created with Sketch.</desc>
    <defs></defs>
    <g id="Page-1" stroke="none" stroke-width="1" fill="none" fill-rule="evenodd">
        <g id="Home" transform="translate(-169.000000, -49.000000)" fill="#FFFFFF">
            <g id="Header" transform="translate(-23.000000, -741.000000)">
                <g id="Logo-and-Nav">
                    <path d="M255.564617,803.35451 L249.282228,805.039242 L246.139995,805.881695 L239.859684,807.565734 L236.717451,808.408186 L211.588589,815.146594 L211.588589,812.003078 L205.305507,813.68781 L205.305507,816.831325 L199.022426,818.516057 L199.022426,812.229892 L202.164833,811.387093 L202.164833,811.3864 L214.729437,808.017283 L214.729437,808.017976 L239.859684,801.279395 L239.859684,804.422218 L246.139995,802.738179 L246.139995,796.451494 C246.139995,794.716166 244.735444,793.684326 242.998454,794.150084 L211.588589,802.57253 L211.588589,790.000026 L205.305507,791.684585 L205.305507,804.257435 L195.883656,806.783753 C194.146666,807.249511 192.742115,809.034567 192.742115,810.770068 L192.742115,823.341359 C192.742115,825.079459 194.146666,826.108353 195.883656,825.642769 L205.305507,823.116278 L205.305507,823.117837 L211.588589,821.433106 L211.588589,821.431373 L239.859684,813.850686 L239.859684,816.996108 L246.139995,815.312069 L246.139995,812.166474 L252.423076,810.481915 L252.423076,816.770853 L249.282228,817.612959 L246.139995,818.455412 L239.859684,820.139624 L236.717451,820.982076 L211.588589,827.720311 L211.588589,824.576621 L205.305507,826.261353 L205.305507,832.549078 C205.305507,834.284579 206.712829,835.315552 208.447048,834.850488 L239.859684,826.427349 L239.859684,839.000026 L246.139995,837.315987 L246.139995,824.743137 L255.564617,822.215952 C257.298836,821.751061 258.706331,819.965311 258.706331,818.229811 L258.706331,805.653148 C258.706331,803.917647 257.298836,802.889446 255.564617,803.35451" id="Mask"></path>
                </g>
            </g>
        </g>
    </g>
</svg>