<?xml version="1.0" standalone="no"?>
<!DOCTYPE svg PUBLIC "-//W3C//DTD SVG 1.1//EN" "http://www.w3.org/Graphics/SVG/1.1/DTD/svg11.dtd" >
<svg xmlns="http://www.w3.org/2000/svg" xmlns:xlink="http://www.w3.org/1999/xlink" version="1.1">
<metadata></metadata>
<defs>
<font id="futura_ltcondextraboldobl" horiz-adv-x="1236" >
<font-face units-per-em="2048" ascent="1638" descent="-410" />
<missing-glyph horiz-adv-x="618" />
<glyph horiz-adv-x="0" />
<glyph unicode="&#xd;" horiz-adv-x="681" />
<glyph unicode=" "  horiz-adv-x="618" />
<glyph unicode="&#x09;" horiz-adv-x="618" />
<glyph unicode="&#xa0;" horiz-adv-x="618" />
<glyph unicode="!" horiz-adv-x="622" d="M109 215q14 94 92 162.5t170 68.5q100 0 160.5 -67.5t43.5 -169.5q-14 -96 -94 -164t-178 -68t-154.5 70t-39.5 168zM201 553l170 1079h407l-170 -1079h-407z" />
<glyph unicode="&#x22;" horiz-adv-x="1126" d="M289 803l55 741h408l-179 -741h-284zM807 803l55 741h408l-178 -741h-285z" />
<glyph unicode="#" d="M197 455l36 233h222l59 195h-192l36 233h222l125 420h178l-123 -420h176l123 420h184l-125 -420h170l-37 -233h-202l-56 -195h174l-37 -233h-206l-133 -455h-179l131 455h-174l-133 -455h-184l133 455h-188zM637 688h176l55 195h-176z" />
<glyph unicode="$" d="M221 41l78 483q33 -72 98.5 -123t141.5 -51q53 0 91 26.5t46 82.5q6 31 -8.5 61.5t-30.5 46t-47 41.5l-8 8q-29 27 -48.5 46.5t-43 45t-39 47t-32 49t-24.5 54.5t-14 58.5t-5 66.5t7 74q27 176 136.5 311.5t279.5 190.5l32 210h187l-33 -198q131 -12 236 -82l-74 -463 q-102 168 -227 168q-41 0 -76 -24.5t-41 -67.5q-2 -20 3 -41t21.5 -40.5t26.5 -30.5t34.5 -30.5t26.5 -23.5q80 -72 120 -124t60.5 -132t4.5 -182q-25 -164 -123 -296t-250 -192l-37 -227h-188l30 190q-184 4 -311 68z" />
<glyph unicode="%" horiz-adv-x="1628" d="M195 61l1337 1547l147 -117l-1341 -1544zM259 1192q26 162 131.5 270.5t264 108.5t230 -108.5t46 -270.5t-132 -270.5t-265 -108.5t-229.5 108.5t-45 270.5zM530.5 1191.5q-24.5 -151.5 39 -151.5t88 151.5t-39 151.5t-88 -151.5zM943.5 352q25.5 162 131 270.5 t264 108.5t230 -108.5t46 -270.5t-132 -270.5t-265 -108.5t-229 108.5t-45 270.5zM1215.5 352.5q-23.5 -151.5 40 -151.5t87 151.5t-40 151.5t-87 -151.5z" />
<glyph unicode="&#x26;" horiz-adv-x="1499" d="M176 451q20 131 109.5 236.5t222.5 172.5q-98 150 -74 307q29 174 177.5 289t322.5 115q199 0 313.5 -117t85.5 -299q-18 -123 -112.5 -227.5t-227.5 -173.5l121 -199l184 176l168 -282l-198 -160l180 -289h-440l-47 84q-195 -111 -375 -111q-199 0 -320 139.5t-90 338.5 zM537 457q-12 -82 25.5 -119t105.5 -37q41 0 127 57l-129 236q-117 -59 -129 -137zM778 1176q-14 -88 70 -203q82 68 120 111.5t46 89.5q6 43 -20 79.5t-79 36.5q-59 0 -95 -35.5t-42 -78.5z" />
<glyph unicode="'" horiz-adv-x="608" d="M289 803l55 741h408l-179 -741h-284z" />
<glyph unicode="(" horiz-adv-x="655" d="M180 651q78 487 393 920l254 -127q-121 -176 -204.5 -387t-114.5 -408q-31 -186 -13.5 -401t80.5 -389l-292 -125q-179 432 -103 917z" />
<glyph unicode=")" horiz-adv-x="655" d="M35 -141q119 174 203 385t114 405q33 190 15.5 404.5t-80.5 390.5l291 127q180 -432 102 -920q-76 -485 -393 -917z" />
<glyph unicode="*" horiz-adv-x="864" d="M272 1231l97 174l172 -70l32 209h189l-35 -223l225 72l27 -181l-221 -69l88 -168l-172 -105l-92 166l-152 -151l-127 114l152 158z" />
<glyph unicode="+" horiz-adv-x="1024" d="M117 406l39 235h342l59 379h236l-60 -379h342l-39 -235h-342l-61 -394h-236l62 394h-342z" />
<glyph unicode="," horiz-adv-x="618" d="M-66 -328l306 744h409l-387 -744h-328z" />
<glyph unicode="-" horiz-adv-x="657" d="M156 489l53 332h502l-54 -332h-501z" />
<glyph unicode="." horiz-adv-x="618" d="M111 215q14 94 92 162.5t170 68.5q100 0 160.5 -67.5t44.5 -169.5q-14 -96 -94.5 -164t-178.5 -68t-154.5 70t-39.5 168z" />
<glyph unicode="/" horiz-adv-x="1353" d="M121 -246l1073 1878h258l-1073 -1878h-258z" />
<glyph unicode="0" d="M177 594q3 88 18 178q16 111 47.5 215.5t88 213t129 188t178 131t228.5 51.5q104 0 184 -35t129.5 -96.5t80 -139t40 -170t6.5 -180.5t-18 -178q-18 -111 -50 -215t-88 -212.5t-128 -188.5t-178.5 -131.5t-229.5 -51.5q-104 0 -184 35t-128 96.5t-78.5 139.5t-40 170 t-6.5 180zM581 484q3 -40 11 -77.5t28.5 -57t51.5 -19.5q43 0 79.5 42t60.5 117.5t37 137t28 145.5q8 53 13 94t10 97.5t2 96.5t-11 78t-28.5 57t-51.5 19q-45 0 -81 -42t-60.5 -117.5t-38 -137t-25.5 -145.5q-8 -53 -13 -94t-10 -97.5t-2 -96.5z" />
<glyph unicode="1" d="M467 0l188 1188h-166l56 356h583l-243 -1544h-418z" />
<glyph unicode="2" d="M76 0l493 543q6 8 21 22q70 78 108.5 123t95 121t88 144.5t42.5 136.5q8 53 -8.5 95t-65.5 42q-100 0 -131 -189l-8 -57h-404l6 55q37 233 206 384t401 151q217 0 329.5 -144.5t77.5 -361.5q-55 -348 -516 -719l2 -4q18 0 95 7t118 7h172l-57 -356h-1065z" />
<glyph unicode="3" d="M172 455h408l-2 -27q-4 -59 18 -89t63 -30q57 0 92 40t46 100q14 88 -33 128.5t-125 40.5h-57l51 326h51q86 0 133 35t62 123q8 49 -5.5 91t-58.5 42q-84 0 -104 -119v-10l-406 -2q47 211 206 339t372 128q199 0 318.5 -128t86.5 -325q-14 -100 -77.5 -186t-157.5 -133 q94 -53 132 -148.5t19 -216.5q-23 -143 -116 -249.5t-221 -159t-267 -52.5q-221 0 -345 132.5t-83 349.5z" />
<glyph unicode="4" d="M113 313l51 326l608 905h512l-141 -899h133l-53 -332h-133l-50 -313h-415l49 313h-561zM506 645h235l41 264q4 23 49 197l-4 4z" />
<glyph unicode="5" d="M125 94l106 365q166 -111 312 -111q88 0 159.5 46t85.5 130q14 92 -51 133t-164 41q-141 0 -284 -55l260 901h770l-55 -356h-441l-61 -180q41 4 59 4q195 0 307.5 -139.5t81.5 -333.5q-39 -246 -233.5 -406t-439.5 -160q-232 0 -412 121z" />
<glyph unicode="6" d="M178 535q18 113 90 263t136.5 254.5t160.5 245.5l168 246h449l-412 -557l4 -4q74 43 150 43q119 0 195.5 -79t100 -187.5t7.5 -222.5q-41 -248 -212 -406t-417 -158q-160 0 -264.5 77t-142 203t-13.5 282zM588 522q-33 -217 84 -217q119 0 153 223q4 41 4 85t-23.5 78 t-68.5 34q-47 0 -80.5 -37t-47 -78t-21.5 -88z" />
<glyph unicode="7" d="M92 0l760 1188h-524l55 356h1098l-940 -1544h-449z" />
<glyph unicode="8" d="M160.5 432q21.5 135 103.5 231.5t215 139.5v4q-109 33 -153.5 118t-24.5 208q31 197 194.5 317.5t371.5 120.5t334 -121t95 -317q-20 -123 -91.5 -208t-192.5 -118v-4q119 -43 171 -139.5t30.5 -231.5t-113.5 -241.5t-220 -162t-265.5 -55.5t-248 55.5t-169 162 t-37 241.5zM592 485q-12 -78 3 -130t71.5 -52t89 52.5t45.5 129.5q8 57 -10.5 106.5t-70.5 49.5t-86 -49t-42 -107zM705 1112q-8 -55 5 -98t62 -43t77 43t36 98q8 51 -6.5 90t-63.5 39t-75.5 -39t-34.5 -90z" />
<glyph unicode="9" d="M254 1008q39 248 211 405.5t418 157.5q160 0 264 -77t141 -202t12 -282q-18 -113 -89.5 -264.5t-135 -254t-160.5 -243.5l-170 -248h-446l412 557l-4 4q-78 -43 -150 -43q-119 0 -195.5 79t-101 187.5t-6.5 223.5zM652 932q-1 -43 22.5 -78t68.5 -35q113 0 146 203 q35 219 -80 219q-117 0 -152 -225q-4 -41 -5 -84z" />
<glyph unicode=":" horiz-adv-x="618" d="M111 215q14 94 92 162.5t170 68.5q100 0 160.5 -67.5t44.5 -169.5q-14 -96 -94.5 -164t-178.5 -68t-154.5 70t-39.5 168zM207 831q16 94 94 163t168 69q102 0 162.5 -67.5t44.5 -170.5q-16 -96 -96.5 -163.5t-176.5 -67.5q-98 0 -154 69.5t-42 167.5z" />
<glyph unicode=";" horiz-adv-x="618" d="M-66 -328l306 744h409l-387 -744h-328zM289 834q16 92 94 160.5t170 68.5q100 0 160.5 -67.5t44.5 -168.5q-16 -98 -95.5 -165.5t-175.5 -67.5q-98 0 -155.5 70.5t-42.5 169.5z" />
<glyph unicode="&#x3c;" horiz-adv-x="1024" d="M119 426l33 203l993 465l-37 -228l-727 -342l620 -331l-36 -228z" />
<glyph unicode="=" horiz-adv-x="1024" d="M86 207l37 235h919l-36 -235h-920zM150 606l36 236h920l-37 -236h-919z" />
<glyph unicode="&#x3e;" horiz-adv-x="1024" d="M47 -35l37 228l727 331l-621 342l37 228l846 -465l-33 -203z" />
<glyph unicode="?" horiz-adv-x="1116" d="M238 1133l4 30q29 217 188.5 353.5t374.5 136.5q221 0 341 -141.5t85 -362.5q-25 -158 -121 -277.5t-252 -152.5l-27 -160h-397l62 379l69 -2q111 0 172.5 45t79.5 154q2 33 5 70.5t-14 70.5t-54 33q-88 0 -115 -176h-401zM352 215q14 94 92 162.5t170 68.5 q100 0 161 -67.5t44 -169.5q-14 -96 -94 -164t-178 -68t-154.5 70t-40.5 168z" />
<glyph unicode="@" horiz-adv-x="1699" d="M199 778q35 221 172 404.5t339.5 286t426.5 102.5q137 0 262 -46t216 -128t136 -205t23 -264q-23 -133 -89.5 -249t-156.5 -191.5t-190.5 -118.5t-192.5 -43q-41 0 -63.5 34.5t-4.5 83.5l-2 5q-152 -123 -272 -123q-160 0 -237 100t-52 264q33 201 177.5 346.5 t334.5 145.5q176 0 242 -123l39 108h200l-207 -626q-16 -45 19 -45q66 0 164 116.5t121 257.5q41 254 -96.5 403.5t-399.5 149.5q-283 0 -494 -182t-256 -463q-45 -293 121 -475t457 -182q211 0 450 190h197q-141 -160 -317 -249t-369 -89q-170 0 -312.5 61.5t-236.5 168 t-135 256t-14 319.5zM743 711q-14 -88 23 -142.5t113 -54.5q96 0 171.5 77t100.5 171q25 98 -7 164.5t-124 66.5q-94 0 -176 -85t-101 -197z" />
<glyph unicode="A" horiz-adv-x="1239" d="M16 0l615 1544h510l84 -1544h-432v199h-281l-66 -199h-430zM621 526h176l10 359q2 43 5 92t6 107.5t5 91.5h-4q-72 -250 -86 -291z" />
<glyph unicode="B" horiz-adv-x="1249" d="M123 0l244 1544h491q78 0 148.5 -13t136 -46t109.5 -82t64 -126q12 -43 12 -92q0 -38 -7 -81q-20 -133 -113.5 -221t-224.5 -88v-4q151 -11 217 -103q47 -66 48 -167q0 -38 -7 -81q-12 -78 -49 -150.5t-100.5 -140t-169 -108.5t-238.5 -41h-561zM594 334h35q74 0 130 38 q55 38 67 112q2 16 3 29q0 52 -34 81q-43 37 -121 37h-33zM690 944h25q72 0 124 33t62 102q3 17 3 31q0 44 -26 68q-36 32 -104 32h-41z" />
<glyph unicode="C" horiz-adv-x="1093" d="M194 416q-11 68 -11 145q0 93 16 201q23 143 68.5 262t103 201t128 145.5t138.5 100t139.5 60t125.5 32t102 8.5q120 0 208 -37l-71 -442q-41 47 -80 68.5t-100 21.5q-76 0 -138.5 -39t-100.5 -103.5t-61.5 -130t-33.5 -137.5q-12 -58 -12 -119q1 -11 1 -21 q2 -72 18.5 -132t66 -99t122.5 -39q66 0 120 24t118 75l-94 -432q-135 -55 -260 -56q-131 0 -235.5 49.5t-179 147.5t-98.5 246z" />
<glyph unicode="D" horiz-adv-x="1267" d="M123 0l244 1544h335q352 0 510 -204q116 -150 116 -383q0 -84 -15 -179q-123 -778 -826 -778h-364zM600 373q68 0 121 39t85 101t50 121.5t29 123.5q10 72 11 135v10q0 59 -10 117q-12 64 -52.5 101.5t-108.5 37.5z" />
<glyph unicode="E" horiz-adv-x="1021" d="M123 0l244 1544h776l-58 -364h-358l-33 -215h322l-60 -365h-321l-37 -235h358l-57 -365h-776z" />
<glyph unicode="F" horiz-adv-x="985" d="M123 0l244 1544h737l-57 -364h-320l-35 -224h299l-57 -364h-299l-94 -592h-418z" />
<glyph unicode="G" horiz-adv-x="1298" d="M181 570q1 94 18 194q18 121 54 231.5t97.5 217t140 184.5t191.5 126t242 48q182 0 303 -103.5t164 -277.5l-428 -150q1 11 1 22q0 43 -20 84q-24 52 -74 52q-37 0 -69.5 -18.5t-55 -45t-42 -70.5t-30.5 -78t-22.5 -86t-16.5 -78.5t-11 -67.5q-2 -18 -5 -27q0 -10 -4 -41 t-6 -52.5t-4 -54t-1 -57t4 -53.5t11.5 -49.5t20.5 -37.5t32.5 -26.5t47.5 -9.5q74 0 120 69.5t58 151.5h-154l52 326h581l-8 -66q-20 -129 -48 -236.5t-82 -227t-126 -200.5t-184.5 -135.5t-251.5 -54.5q-111 0 -198 31t-142 87t-92 130t-50 164q-13 84 -13 171v14z" />
<glyph unicode="H" horiz-adv-x="1282" d="M123 0l244 1544h417l-86 -553h199l86 553h418l-244 -1544h-418l99 627h-199l-98 -627h-418z" />
<glyph unicode="I" horiz-adv-x="663" d="M123 0l244 1544h417l-243 -1544h-418z" />
<glyph unicode="J" horiz-adv-x="880" d="M53 23l68 432q51 -90 155 -90q41 0 71 19t46.5 56t23.5 66t15 74l152 964h417l-165 -1046q-10 -78 -25.5 -136.5t-52.5 -136.5t-89.5 -129t-141.5 -87t-205 -36q-134 1 -269 50z" />
<glyph unicode="K" horiz-adv-x="1298" d="M123 0l244 1544h417l-102 -657h2l332 657h440l-450 -745l245 -799h-448l-148 709h-2l-112 -709h-418z" />
<glyph unicode="L" horiz-adv-x="901" d="M123 0l244 1544h417l-186 -1179h313l-57 -365h-731z" />
<glyph unicode="M" horiz-adv-x="1689" d="M31 0l424 1544h520l-10 -821h4q61 219 86 287l184 534h514l-94 -1544h-434l114 971h-4q-12 -37 -48 -156t-58 -182l-219 -633h-340l8 971h-4q-59 -342 -60 -342l-135 -629h-448z" />
<glyph unicode="N" horiz-adv-x="1335" d="M123 0l244 1544h397l188 -930l4 4q4 57 8.5 168t10.5 198t18 167l62 393h401l-244 -1544h-401l-170 891l-4 -4q-4 -45 -10 -136.5t-13.5 -162t-17.5 -135.5l-72 -453h-401z" />
<glyph unicode="O" horiz-adv-x="1333" d="M182 582q0 94 17 190q18 117 56 228.5t99.5 216t141 182.5t188.5 125t229 47q104 0 186.5 -33t136.5 -91t91 -134t51.5 -166t14.5 -184.5t-15 -190.5q-18 -117 -56 -228.5t-100.5 -216t-141.5 -182t-187.5 -125t-230.5 -47.5q-102 0 -185.5 33t-137.5 91.5t-90 134.5 q-35 75 -51 165q-15 87 -16 179v6zM608 530q4 -41 15.5 -81.5t37 -63.5t62.5 -23q45 0 83 35t61.5 80t43 110.5t26.5 103.5t15 81q4 35 8.5 65.5t7.5 82.5q1 22 1 43q0 27 -2 51q-4 41 -14.5 82t-36 63.5t-64.5 22.5q-43 0 -82 -35t-61.5 -80t-42 -110.5t-27.5 -103.5 t-14 -81q-6 -35 -9.5 -65.5t-7.5 -82.5q-2 -26 -2 -50t2 -44z" />
<glyph unicode="P" horiz-adv-x="1196" d="M123 0l244 1544h381q145 0 252.5 -25.5t188.5 -84t113 -162.5q19 -62 18 -138q0 -53 -9 -114q-23 -147 -83.5 -250.5t-151.5 -161.5q-90 -58 -202 -82q-96 -21 -214 -21q-19 0 -39 1l-80 -506h-418zM676 854q7 0 14 -1q78 0 130 42q58 45 69 131q3 22 3 41q0 52 -22 91 q-32 54 -106 54l-31 -2z" />
<glyph unicode="Q" horiz-adv-x="1333" d="M182 581.5q0 94.5 17 190.5q18 117 56 228.5t99.5 216t141 182.5t188.5 125t229 47q104 0 186.5 -33t136.5 -91t91 -134t51.5 -166t14.5 -184.5t-15 -190.5q-68 -381 -266 -590l150 -213l-367 -184l-111 207q-61 -18 -122 -19q-102 0 -185.5 33t-137.5 91.5t-90 134 t-51.5 165.5t-15.5 184.5zM608 530q4 -41 15.5 -81.5t37 -63.5t62.5 -23q45 0 83 35t61.5 80t43 110.5t26.5 103.5t15 81q4 35 8.5 65.5t7.5 82.5q1 23 1 43q0 28 -2 51q-4 41 -14.5 82t-36 63.5t-64.5 22.5q-43 0 -82 -35t-61.5 -80t-42 -110.5t-27.5 -103.5t-14 -81 q-6 -35 -9.5 -65.5t-7.5 -82.5q-2 -27 -2 -50.5t2 -43.5z" />
<glyph unicode="R" d="M123 0l244 1544h403q145 0 248.5 -23.5t182.5 -80t107 -158.5q16 -58 16 -130q0 -56 -9 -122q-23 -133 -98.5 -236.5t-202.5 -150.5l209 -643h-453l-129 643l-6 -4q-2 -25 -8 -72t-11.5 -85t-9.5 -70l-65 -412h-418zM672 831l26 -2q80 0 134.5 58.5t66.5 138.5q4 25 4 47 q0 63 -34 97q-42 42 -119 42h-17z" />
<glyph unicode="S" horiz-adv-x="966" d="M90 37l76 483q37 -72 100.5 -122t136.5 -50q47 0 89.5 27.5t50.5 75.5q2 11 2 22q0 36 -21 64q-18 27 -61 59q-129 115 -176 197q-48 85 -48 189q0 39 7 81q10 57 34.5 121.5t70.5 134.5t106.5 125t149.5 91t190 36q152 0 284 -78l-73 -469q-31 66 -91.5 116t-128.5 50 q-41 0 -78.5 -26.5t-43.5 -67.5q-1 -6 -1 -13q0 -35 27 -73q8 -10 19.5 -21.5t27 -25t19.5 -17.5q131 -102 176 -188q40 -75 40 -177q0 -43 -7 -92q-35 -219 -197 -367.5t-377 -148.5q-162 1 -303 64z" />
<glyph unicode="T" horiz-adv-x="978" d="M231 1167l60 377h887l-60 -377h-239l-185 -1167h-418l185 1167h-230z" />
<glyph unicode="U" horiz-adv-x="1273" d="M186 342q-2 30 -2 55t2 47q4 43 11 91l159 1009h418l-153 -971q-12 -82 -12 -121q0 -8 1 -14q10 -76 84 -76q78 0 109 74q16 35 31 135l153 973h418l-160 -1009q-10 -70 -27.5 -131.5t-61.5 -145.5t-106.5 -142.5t-171 -100.5t-245.5 -42q-100 0 -178 21.5t-126 56.5 t-80 85t-45.5 98.5t-17.5 107.5z" />
<glyph unicode="V" horiz-adv-x="1200" d="M244 1544h438l-2 -635q0 -70 -6 -196.5t-6 -175.5h4q14 49 48 176t56 196l215 635h453l-664 -1544h-426z" />
<glyph unicode="W" horiz-adv-x="1744" d="M244 1544h411l-6 -622q0 -14 -10 -342h4q4 18 35 146t53 196l207 622h358l9 -622q0 -66 -2.5 -183.5t-4.5 -152.5h5q10 37 38.5 152.5t49.5 183.5l190 622h408l-555 -1544h-404l-14 627q0 74 6 195.5t6 144.5h-4q-10 -35 -25.5 -101.5t-30 -125t-32.5 -113.5l-186 -627 h-406z" />
<glyph unicode="X" horiz-adv-x="1259" d="M31 0l501 801l-237 743h465l39 -186q6 -33 11 -98.5t7 -79.5h4l72 178l84 186h469l-469 -743l252 -801h-463l-47 240l-23 174h-4l-76 -174l-131 -240h-454z" />
<glyph unicode="Y" horiz-adv-x="1189" d="M260 1544h434l70 -477h4l219 477h432l-499 -889l-105 -655h-418l105 655z" />
<glyph unicode="Z" horiz-adv-x="1208" d="M47 0l578 981q35 59 151 211q-248 -12 -266 -12h-184l57 364h1022l-623 -1057q-16 -27 -45.5 -73.5t-42.5 -67.5q25 2 73 7t88 8.5t75 3.5h237l-57 -365h-1063z" />
<glyph unicode="[" horiz-adv-x="614" d="M27 -240l282 1784h529l-39 -256h-228l-202 -1274h227l-41 -254h-528z" />
<glyph unicode="\" horiz-adv-x="512" d="M-2 1632h258l477 -1878h-258z" />
<glyph unicode="]" horiz-adv-x="614" d="M-18 -240l41 254h227l203 1274h-228l39 256h529l-283 -1784h-528z" />
<glyph unicode="^" horiz-adv-x="1024" d="M154 772l481 772h242l239 -772l-225 -96l-184 571l-361 -571z" />
<glyph unicode="_" horiz-adv-x="1024" d="M-41 -256l16 102h1024l-16 -102h-1024z" />
<glyph unicode="`" horiz-adv-x="778" d="M373 1567h319l56 -344h-224z" />
<glyph unicode="a" horiz-adv-x="1165" d="M133 410q4 70 17 141q10 70 29.5 139.5t55 146t80.5 134t114 95.5t146 38q168 0 230 -193l6 4l10 166h408l-172 -1081h-402l47 178l-4 4q-55 -92 -135 -148.5t-174 -56.5q-80 0 -134 40t-79.5 100.5t-35.5 141.5q-8 59 -8 111q0 21 1 40zM549 383q6 -74 57 -74 q68 0 103 99q21 55 35 147q13 81 12 121v10q-4 88 -64 88q-61 0 -102 -108q-18 -57 -35 -160q-7 -51 -7 -92q0 -16 1 -31z" />
<glyph unicode="b" horiz-adv-x="1165" d="M109 0l258 1632h401l-88 -555l-29 -147l4 -4q104 178 277 178q84 0 142.5 -39t85.5 -97q28 -60 37 -140q7 -60 7 -115q0 -18 -1 -36q-3 -71 -15 -147q-8 -57 -23.5 -115.5t-49.5 -142.5t-79 -145t-118.5 -105.5t-163.5 -44.5q-86 0 -136.5 43t-80.5 125l-5 -4l-14 -141 h-409zM582 549q-9 -61 -9 -105q0 -122 70 -122q98 0 133 225q10 58 10 100q0 123 -79 123q-29 0 -52.5 -25.5t-38 -66.5t-21.5 -69.5t-13 -59.5z" />
<glyph unicode="c" horiz-adv-x="749" d="M147 545q37 231 205 395t393 164q27 0 84 -4l-55 -350q-88 -4 -142 -56.5t-69 -140.5q-3 -20 -3 -40q0 -51 22 -97q32 -64 102 -64h27l-58 -366q-12 0 -50 -4.5t-60 -4.5q-150 0 -249 83t-134 210q-21 78 -21 164q0 54 8 111z" />
<glyph unicode="d" horiz-adv-x="1165" d="M131 389q2 70 14 141q12 76 31 147t54.5 151.5t80.5 139t116 97.5t153 39q176 0 225 -178l4 4l16 147l88 555h402l-258 -1632h-410l31 141l-4 4q-57 -82 -121 -125t-152 -43q-80 0 -137 37t-84.5 94.5t-39.5 133.5q-10 65 -9 126v21zM561 547q-9 -59 -9 -102 q0 -123 71 -123q31 0 54 18t37.5 54t24 70t15.5 85q11 65 11 111q0 110 -63 110q-104 0 -141 -223z" />
<glyph unicode="e" horiz-adv-x="1114" d="M143 520q25 158 103 289t209 213t290 82q238 0 338 -176q39 -68 53 -151q10 -64 10 -120q0 -17 -1 -33q-4 -70 -21 -167h-589q-6 -37 -6 -66q0 -100 73 -100q35 0 62.5 21.5t37.5 54.5h394q-61 -184 -207 -287t-332 -103q-241 1 -347 149q-77 108 -78 268q0 60 11 126z M569 674h187q2 15 2 28q0 38 -12 68q-16 41 -64 41q-47 0 -77 -44t-36 -93z" />
<glyph unicode="f" horiz-adv-x="784" d="M178 0l121 760h-117l51 321h117l19 125q35 217 141 333t281 116q96 0 190 -29l-59 -371q-43 37 -76 37q-41 0 -57.5 -35.5t-28.5 -123.5l-8 -52h143l-51 -321h-144l-120 -760h-402z" />
<glyph unicode="g" horiz-adv-x="1163" d="M59 -115h410q-1 -9 -1 -17q0 -26 14 -46q20 -25 55 -25q51 0 74.5 44t39.5 141l23 143h-4q-39 -59 -112 -99t-144 -40q-80 0 -136.5 36.5t-86 94t-43.5 133.5q-14 71 -14 137v9q1 71 13 141q10 68 31 138t58.5 149t85 139.5t116 100.5t144.5 40q82 0 130 -43t87 -121l4 4 l14 137h410l-172 -1087q-41 -252 -181.5 -376t-394.5 -124q-209 0 -319 96q-102 87 -102 263q0 15 1 32zM554 472v-19q0 -28 2 -56q3 -37 19 -59.5t43 -22.5q92 0 130 230q8 49 11 85q1 18 1 36t-1 36q-3 37 -19.5 56.5t-47.5 19.5q-94 0 -129 -227q-8 -41 -9 -79z" />
<glyph unicode="h" horiz-adv-x="1177" d="M109 0l258 1632h401l-94 -588q-6 -31 -18.5 -88t-16.5 -75l4 -4q45 94 131 160.5t180 66.5q84 0 138.5 -34t75 -89t25.5 -125l2 -34q0 -54 -13 -109l-113 -713h-401l86 547q11 47 11 82q0 18 -3 32q-8 44 -57 44q-53 0 -76 -46.5t-37 -138.5l-82 -520h-401z" />
<glyph unicode="i" horiz-adv-x="618" d="M109 0l172 1081h401l-172 -1081h-401zM301 1421q14 96 94 165t174 69q97 -1 157 -67q48 -53 48 -126q0 -18 -3 -38q-15 -98 -95 -168t-176 -70q-98 0 -156 68q-46 54 -46 126q0 20 3 41z" />
<glyph unicode="j" horiz-adv-x="618" d="M33 -483l248 1564h401l-248 -1564h-401zM303 1421q14 96 94 165t176.5 69t155.5 -67q46 -54 46 -125q0 -19 -3 -40q-14 -98 -93 -167.5t-175 -69.5q-98 0 -158 68q-46 54 -46 127q0 19 3 40z" />
<glyph unicode="k" horiz-adv-x="1179" d="M109 0l258 1632h401l-164 -1038h4l266 487h435l-346 -495l200 -586h-461l-102 543h-4l-86 -543h-401z" />
<glyph unicode="l" horiz-adv-x="618" d="M109 0l258 1632h401l-258 -1632h-401z" />
<glyph unicode="m" horiz-adv-x="1724" d="M109 0l172 1081h405l-35 -176l4 -4q47 90 126 146.5t171 56.5q104 0 167 -60.5t81 -162.5h4q43 98 121 160.5t176 62.5q239 0 239 -264q0 -56 -11 -123l-113 -717h-402l93 586q5 30 5 54q0 75 -50 75q-59 0 -88 -72q-14 -31 -29 -121l-82 -522h-401l94 598q4 25 4 45 q0 66 -47 66q-63 0 -95 -74q-12 -33 -26 -121l-82 -514h-401z" />
<glyph unicode="n" horiz-adv-x="1177" d="M109 0l172 1081h401l-43 -200l4 -4q45 94 131 160.5t180 66.5q84 0 138.5 -34t75 -89t25.5 -125q1 -17 1 -34q0 -54 -12 -109l-113 -713h-401l86 547q10 45 10 79q0 19 -3 35q-9 44 -56 44q-53 0 -75 -44.5t-38 -140.5l-82 -520h-401z" />
<glyph unicode="o" horiz-adv-x="1130" d="M142 324q-8 45 -7 93q0 60 12 124q18 117 64.5 217t119 178t178 123t231.5 45t217.5 -45t137.5 -123q47 -78 65 -180q8 -45 8 -92q0 -59 -13 -123q-18 -117 -65.5 -217.5t-119 -178t-177 -123t-231.5 -45.5t-218 45.5t-138 122.5t-64 179zM541 541q-11 -71 -11 -123 q0 -139 80 -139q110 0 152 262q11 71 11 123q-1 139 -81 139q-110 0 -151 -262z" />
<glyph unicode="p" horiz-adv-x="1161" d="M33 -483l248 1564h401l-35 -149l4 -4q102 176 271 176q80 0 136 -38t86 -97.5t43 -136.5q11 -66 11 -129v-20q-2 -73 -13 -142.5t-30.5 -140t-55.5 -149.5t-82 -137.5t-113.5 -97.5t-147.5 -39q-158 0 -230 170l-4 -4q-16 -170 -20 -200l-68 -426h-401zM586 551 q-12 -71 -12 -121q0 -115 63 -115q98 0 137 244q4 43 7 90v14q0 39 -14 72q-17 39 -54 39q-92 0 -127 -223z" />
<glyph unicode="q" horiz-adv-x="1161" d="M132 400q3 71 15 141q10 70 32 142.5t59.5 149t86 136t117 97.5t146.5 38q168 0 217 -176l4 4l14 149h402l-248 -1564h-402l68 426q4 33 41 200l-4 4q-123 -170 -283 -170q-78 0 -134 39t-83.5 98.5t-39.5 136.5q-9 61 -9 119q0 15 1 30zM563 559q-10 -67 -10 -116 q0 -128 72 -128q88 0 127 236q10 61 10 105q0 118 -68 118q-51 0 -83.5 -63.5t-47.5 -151.5z" />
<glyph unicode="r" horiz-adv-x="868" d="M109 0l172 1081h403l-55 -207l2 -4q53 106 141 172q83 62 181 62h12l-70 -449q-72 39 -107 39q-53 0 -93 -22.5t-62.5 -64.5t-33.5 -81t-19 -88l-70 -438h-401z" />
<glyph unicode="s" horiz-adv-x="944" d="M76 90l194 299q35 -45 84 -79t99 -34q31 0 57.5 14.5t30.5 41.5q4 29 -17.5 48t-74.5 38q-127 46 -189 120q-47 56 -48 143q0 28 5 58q27 166 164 265.5t328 99.5q174 0 317 -88l-184 -293l-8 8q-27 29 -42.5 43t-44 29.5t-59.5 15.5q-23 0 -43 -14t-24 -39 q-2 -18 6 -35.5t29.5 -30t33.5 -18.5t35 -16q119 -47 176 -118q43 -54 43 -137q0 -26 -4 -55q-29 -174 -172 -276.5t-322 -102.5q-182 0 -370 113z" />
<glyph unicode="t" horiz-adv-x="804" d="M201 0l121 760h-115l51 321h115l49 318h401l-49 -318h133l-51 -321h-133l-121 -760h-401z" />
<glyph unicode="u" horiz-adv-x="1157" d="M168 444l102 637h402l-92 -581q-12 -66 -13 -109q0 -19 3 -33q8 -46 57 -45q51 0 71.5 40t38.5 147l92 581h402l-103 -637q-37 -233 -182 -350t-373 -117q-231 0 -335 122q-78 91 -79 239q0 50 9 106z" />
<glyph unicode="v" horiz-adv-x="1093" d="M203 1081h405l4 -454q1 -14 1 -33q0 -37 -3 -92q-4 -82 -6 -111h4l68 236l164 454h395l-485 -1081h-420z" />
<glyph unicode="w" horiz-adv-x="1642" d="M203 1081h395l-4 -393q-2 -215 -6 -258h4q16 43 43 129t43 129l145 393h342l-8 -393q-2 -172 -8 -258h4q16 43 43 129t43 129l143 393h402l-488 -1081h-397l23 647h-4l-224 -647h-393z" />
<glyph unicode="x" horiz-adv-x="1210" d="M47 0l416 557l-227 524h458l39 -233h4q6 12 18.5 41t20.5 43l84 149h445l-402 -516l260 -565h-465l-49 256q-8 -12 -49 -87t-68 -114l-36 -55h-449z" />
<glyph unicode="y" horiz-adv-x="1118" d="M92 -483l266 528l-155 1036h403l19 -372q2 -39 4 -120t4 -122h4q10 27 34.5 112t43.5 130l143 372h402l-752 -1564h-416z" />
<glyph unicode="z" horiz-adv-x="1021" d="M47 0l488 766q-154 -6 -156 -6h-154l51 321h873l-485 -757q90 4 133 4h166l-52 -328h-864z" />
<glyph unicode="{" horiz-adv-x="614" d="M88 549l31 188q158 25 190 232l47 297q43 279 285 278h213l-33 -209q-88 0 -130 -57t-58 -160l-31 -205q-20 -119 -64 -181t-147 -85v-4q66 -10 98.5 -53t32.5 -102.5t-8 -129.5l-33 -198q-33 -211 121 -211l-31 -189h-225q-57 0 -97 17.5t-59.5 45t-27.5 71t-6 84 t12 96.5l39 250q14 96 -10.5 149t-108.5 76z" />
<glyph unicode="|" horiz-adv-x="512" d="M70 -438l325 2048h236l-326 -2048h-235z" />
<glyph unicode="}" horiz-adv-x="614" d="M-35 -240l31 189q154 0 186 211l33 198q8 57 21.5 100.5t37 84.5t62.5 66.5t92 33.5v4q-94 23 -119.5 85.5t-5.5 180.5l31 205q16 102 -7.5 159.5t-111.5 57.5l33 209h213q242 0 198 -278l-47 -297q-33 -207 117 -232l-31 -188q-88 -23 -131 -76t-57 -149l-39 -250 q-12 -70 -27.5 -120t-46 -97t-82 -72t-125.5 -25h-225z" />
<glyph unicode="~" horiz-adv-x="1024" d="M127 465q74 113 148.5 183.5t164.5 70.5q55 0 128 -34t135.5 -67.5t97.5 -33.5q41 0 76 31.5t96 119.5l92 -149q-4 -6 -12 -19q-39 -53 -62.5 -81.5t-61.5 -66.5t-79 -55.5t-86 -17.5q-53 0 -129 34t-140.5 67.5t-91.5 33.5q-47 0 -85.5 -34.5t-98.5 -133.5z" />
<glyph unicode="&#xa1;" horiz-adv-x="622" d="M18 -483l170 1079h408l-170 -1079h-408zM227 938q14 94 92 162.5t168 68.5q102 0 163 -67.5t44 -169.5q-14 -96 -94 -164t-178 -68t-154.5 70t-40.5 168z" />
<glyph unicode="&#xa2;" d="M438 811q25 164 122 307.5t247 206.5l31 182h194l-22 -135q6 0 18 1t19 1q31 2 73 -8l-55 -342q-82 2 -139.5 -56.5t-69.5 -144.5q-12 -72 19.5 -131t101.5 -59h27l-60 -373q-18 -2 -55.5 -5t-57.5 -3l-32 -209h-195l41 254q-129 74 -181 212t-26 302z" />
<glyph unicode="&#xa3;" d="M121 180q125 80 198 111q53 70 68 160q16 100 -6 217h-141l32 215h76l-2 14q0 6 -3 28.5t-4 29t-4 25.5t-3 28.5t-1 26t-1 27.5v27.5t2 31t4 28.5q29 188 180.5 305t339.5 117q129 0 237.5 -58.5t180.5 -158.5l-258 -221q-53 117 -131 116q-51 0 -89 -35.5t-46 -87.5 q-6 -37 8 -122.5t10 -120.5h375l-33 -215h-350q-16 -158 -146 -299q66 -2 164 -50q51 -25 92 -24q63 0 125 74l189 -113q-68 -129 -172.5 -206t-237.5 -77q-90 0 -195.5 44t-154.5 44q-98 1 -217 -71z" />
<glyph unicode="&#xa4;" d="M164 530l55 168h121l8 56q10 59 17 88h-152l55 168h148q51 135 133 239.5t167 162.5t180 96t167 50.5t135 12.5q129 0 221 -37l-121 -363q-72 43 -172 43q-215 0 -333 -204h446l-55 -168h-457q-6 -25 -12 -70q-8 -49 -10 -74h430l-56 -168h-362q49 -201 256 -200 q111 0 201 43l-58 -365q-111 -35 -217 -35q-242 0 -397.5 143.5t-167.5 413.5h-170z" />
<glyph unicode="&#xa5;" d="M197 455l26 168h295l6 32l-41 152h-231l27 168h159l-155 569h434l39 -340q6 -45 16 -219h4q8 25 22.5 70t28 80.5t27.5 68.5l156 340h432l-322 -569h168l-26 -168h-236l-84 -152l-6 -32h297l-27 -168h-297l-71 -455h-418l72 455h-295z" />
<glyph unicode="&#xa6;" horiz-adv-x="512" d="M111 -182l82 512h235l-82 -512h-235zM272 842l82 512h236l-82 -512h-236z" />
<glyph unicode="&#xa7;" horiz-adv-x="1144" d="M85 -11.5q1 23.5 5 44.5l4 30h299q-18 -84 28 -134t132 -50q66 0 119 35t63 104q8 49 -30.5 90.5t-143.5 96.5q-197 102 -258 145q-158 117 -129 297q14 88 67.5 167t139.5 132q-2 2 -17.5 25.5t-19.5 32t-15.5 33t-13.5 45t-2 53t6 69.5q27 164 167.5 265.5t363.5 101.5 q186 0 289.5 -97.5t74.5 -279.5l-6 -37h-286l8 33q10 68 -30 112t-114 44q-63 0 -106 -34t-51 -83q-4 -31 4 -55.5t31.5 -45t41 -32t50.5 -27.5q12 -6 114.5 -58.5t153.5 -82.5q86 -51 121 -137t26 -152q-8 -78 -60 -173t-140 -163q47 -25 86 -95.5t26 -139.5 q-14 -90 -48 -160t-98.5 -129.5t-172 -91t-256.5 -33.5q-92 -2 -164 15.5t-117 44t-75.5 65.5t-44 73.5t-18.5 73.5t-4 62.5zM506 639q8 -88 233 -186q113 94 103 182q-18 49 -61.5 78.5t-157.5 85.5q-13 6 -19 8q-109 -66 -98 -168z" />
<glyph unicode="&#xa8;" horiz-adv-x="778" d="M219 1397q10 66 67.5 115t125.5 49q70 0 112.5 -48.5t32.5 -119.5q-12 -70 -68.5 -118t-127 -48t-111.5 50t-31 120zM666 1397q10 66 67.5 115t124.5 49q70 0 113 -48.5t33 -119.5q-12 -70 -68.5 -118t-127.5 -48t-112 50t-30 120z" />
<glyph unicode="&#xa9;" horiz-adv-x="1699" d="M162 581.5q-8 96.5 10 192.5q18 115 64.5 225.5t125 215t182 183.5t248 126t306.5 47q190 0 335.5 -65.5t225.5 -177t109.5 -254t5.5 -300.5q-27 -166 -108 -312.5t-200.5 -254t-281.5 -171t-338 -63.5q-137 0 -250 33t-188.5 90.5t-132 134t-81 165.5t-32.5 185.5z M371 774q-43 -272 94 -439t407 -167q268 0 464 171t241 443q41 268 -101.5 431t-412.5 163q-268 0 -458.5 -166t-233.5 -436zM567 782q31 203 170.5 331t337.5 128q147 0 237.5 -81t92.5 -222h-188q-6 135 -173 135q-117 0 -187.5 -79t-90.5 -203q-18 -123 26 -212.5 t156 -89.5q76 0 140.5 38t78.5 106h189q-37 -141 -158 -226t-264 -85q-201 0 -300 131t-67 329z" />
<glyph unicode="&#xaa;" horiz-adv-x="698" d="M210 1131.5q-3 60.5 9 107.5q8 53 26.5 106.5t49.5 106.5t82 86t115 33q111 0 149 -115l4 2v47l6 51h264l-102 -647h-260l27 107l-5 -2l-2 4q-31 -55 -81 -89t-113 -34t-103 36t-51.5 88t-14.5 112.5zM465 1139q8 -45 49 -45q45 0 66 59q14 33 22 88t6 78q-2 53 -43 53 q-49 0 -73 -63q-12 -35 -23 -97q-8 -49 -4 -73z" />
<glyph unicode="&#xab;" horiz-adv-x="1087" d="M182 655l424 465l158 -135l-313 -330l208 -329l-200 -136zM584 655l424 465l157 -135l-313 -330l209 -329l-201 -136z" />
<glyph unicode="&#xac;" horiz-adv-x="1024" d="M150 606l36 236h920l-94 -594h-236l58 358h-684z" />
<glyph unicode="&#xad;" horiz-adv-x="657" d="M156 489l53 332h502l-54 -332h-501z" />
<glyph unicode="&#xae;" horiz-adv-x="1699" d="M161 581.5q-9 96.5 11 190.5q18 115 63.5 225.5t125 215t183 183.5t248 127t306.5 48q190 0 334.5 -65.5t225.5 -178.5t110.5 -255t5.5 -300q-27 -164 -108 -309.5t-200.5 -254t-281.5 -172t-338 -63.5q-137 0 -250 33t-188.5 90.5t-132 134t-81 165.5t-33.5 185.5z M371 772q-43 -270 94 -437t407 -167q268 0 465 171t238 441q43 268 -99.5 432t-412.5 164q-268 0 -458.5 -167t-233.5 -437zM532 336l138 864h485q141 -4 204.5 -65.5t41.5 -200.5q-18 -117 -85 -172t-181 -64l145 -362h-225l-131 342h-140l-53 -342h-199zM809 834h244 q133 0 149 98q10 68 -28 90t-130 22h-200z" />
<glyph unicode="&#xaf;" horiz-adv-x="778" d="M197 1282l34 217h791l-35 -217h-790z" />
<glyph unicode="&#xb0;" horiz-adv-x="819" d="M303 1264q18 125 122.5 216t231.5 91t203 -90t58 -217q-20 -127 -125 -217.5t-232 -90.5t-202.5 90.5t-55.5 217.5zM520 1263.5q-6 -36.5 16.5 -63t59.5 -26.5t67.5 26.5t37 63t-16 63.5t-59.5 27t-68 -27t-37 -63.5z" />
<glyph unicode="&#xb1;" horiz-adv-x="1024" d="M51 -12l37 235h920l-37 -235h-920zM145 580l37 235h342l39 242h236l-39 -242h342l-37 -235h-342l-41 -256h-236l41 256h-342z" />
<glyph unicode="&#xb2;" horiz-adv-x="741" d="M104 631l316 325q53 53 74.5 77t63.5 74t62.5 92t26.5 83q6 31 -6 56.5t-45 25.5q-66 0 -82 -113l-6 -34h-264l6 32q23 141 131 231.5t258 90.5q141 0 216 -87t54 -218q-35 -213 -321 -418l2 -4h239l-32 -213h-693z" />
<glyph unicode="&#xb3;" horiz-adv-x="741" d="M174 905h266l-2 -16q-8 -72 54 -72q37 0 59 27.5t29 62.5q16 106 -123 97h-17l29 190h33q57 0 88 21.5t39 72.5q4 29 -5.5 52.5t-39.5 23.5q-29 0 -42.5 -17.5t-23.5 -48.5v-8h-262q29 127 130 204t241 77q129 0 207.5 -77t60.5 -194q-10 -59 -50 -110t-102 -78 q125 -66 101 -219q-20 -127 -133 -202t-254 -75q-145 0 -226.5 79t-56.5 210z" />
<glyph unicode="&#xb4;" horiz-adv-x="778" d="M401 1223l164 344h318l-256 -344h-226z" />
<glyph unicode="&#xb6;" horiz-adv-x="1126" d="M209 1180q33 199 156.5 281.5t343.5 82.5h667l-37 -235h-75l-244 -1538h-277l244 1538h-135l-244 -1538h-276l168 1058q-156 0 -236 94.5t-55 256.5z" />
<glyph unicode="&#xb7;" horiz-adv-x="618" d="M160 526q14 94 92 163t170 69q100 0 160.5 -67.5t44.5 -170.5q-14 -96 -94.5 -163.5t-178.5 -67.5q-96 0 -153.5 69.5t-40.5 167.5z" />
<glyph unicode="&#xb8;" horiz-adv-x="778" d="M209 -213q59 43 72 125l4 18h241q-31 -115 -99.5 -200.5t-172.5 -120.5z" />
<glyph unicode="&#xb9;" horiz-adv-x="741" d="M350 631l113 710h-113l33 215h381l-146 -925h-268z" />
<glyph unicode="&#xba;" horiz-adv-x="698" d="M215 1231q25 147 127 243.5t258 96.5q160 0 226.5 -97.5t43.5 -246.5q-25 -147 -125 -239.5t-258 -92.5t-226 95t-46 241zM466 1190q-1 -23 1 -50.5t14 -46t35 -18.5q31 0 54.5 33t32.5 64.5t13 60.5q2 25 5.5 59.5t-11 66.5t-43.5 32q-31 0 -53 -33t-30.5 -63.5 t-14.5 -61.5q-2 -20 -3 -43z" />
<glyph unicode="&#xbb;" horiz-adv-x="1087" d="M129 326l315 329l-211 330l201 135l279 -465l-426 -465zM530 326l316 329l-211 330l203 135l276 -465l-424 -465z" />
<glyph unicode="&#xbc;" horiz-adv-x="1855" d="M264 61l1335 1547l150 -117l-1343 -1544zM371 631l112 710h-112l32 215h381l-145 -925h-268zM1049 188l30 195l387 543h334l-86 -539h86l-31 -199h-86l-30 -188h-271l31 188h-364zM1290 387h154l29 158q0 2 24 119l-2 -2l-4 4z" />
<glyph unicode="&#xbd;" horiz-adv-x="1855" d="M233 61l1336 1547l149 -117l-1343 -1544zM360 631l113 710h-113l33 215h381l-145 -925h-269zM1049 0l315 326q53 53 74.5 76.5t63.5 73.5t62.5 92t26.5 83q6 31 -6 56.5t-43 25.5q-66 0 -84 -112l-6 -35h-264l6 32q23 141 131.5 231.5t259.5 90.5q139 0 214 -87t54 -218 q-33 -213 -321 -418l2 -4h240l-33 -213h-692z" />
<glyph unicode="&#xbe;" horiz-adv-x="1855" d="M215 905h266l-2 -16q-8 -72 53 -72q37 0 59.5 27.5t29.5 62.5q16 106 -123 97h-17l29 190h33q57 0 88 21.5t39 72.5q4 29 -5.5 52.5t-39.5 23.5q-29 0 -42.5 -17.5t-23.5 -48.5v-8h-262q29 127 130 204t241 77q129 0 207.5 -77t60.5 -194q-10 -59 -50 -110t-102 -78 q125 -66 101 -219q-20 -127 -133 -202t-254 -75q-145 0 -226.5 79t-56.5 210zM356 61l1336 1547l149 -117l-1343 -1544zM1090 188l30 195l387 543h334l-86 -539h86l-31 -199h-86l-30 -188h-271l31 188h-364zM1331 387h154l28 158q0 2 25 119l-2 -2l-4 4z" />
<glyph unicode="&#xbf;" horiz-adv-x="1116" d="M68 -2q25 158 121 277.5t251 152.5l25 160h397l-59 -379l-72 2q-109 0 -171 -45t-79 -154q-2 -33 -5 -70.5t14.5 -70.5t52.5 -33q88 0 116 176h402l-4 -30q-31 -217 -189.5 -353.5t-373.5 -136.5q-221 0 -341 141.5t-85 362.5zM471 940q14 94 92 162.5t170 68.5 q100 0 160.5 -67.5t44.5 -169.5q-14 -96 -94 -164t-178 -68q-96 0 -153.5 70t-41.5 168z" />
<glyph unicode="&#xc0;" horiz-adv-x="1239" d="M16 0l615 1544h510l84 -1544h-432v199h-281l-66 -199h-430zM621 526h176l10 359q2 43 5 92t6 107.5t5 91.5h-4q-72 -250 -86 -291zM674 1999h319l54 -344h-224z" />
<glyph unicode="&#xc1;" horiz-adv-x="1239" d="M16 0l615 1544h510l84 -1544h-432v199h-281l-66 -199h-430zM621 526h176l10 359q2 43 5 92t6 107.5t5 91.5h-4q-72 -250 -86 -291zM752 1655l166 344h317l-258 -344h-225z" />
<glyph unicode="&#xc2;" horiz-adv-x="1239" d="M16 0l615 1544h510l84 -1544h-432v199h-281l-66 -199h-430zM555 1671l221 305h359l100 -305h-238l-65 182l-131 -182h-246zM621 526h176l10 359q2 43 5 92t6 107.5t5 91.5h-4q-72 -250 -86 -291z" />
<glyph unicode="&#xc3;" horiz-adv-x="1239" d="M16 0l615 1544h510l84 -1544h-432v199h-281l-66 -199h-430zM492 1665q10 123 87.5 215t198.5 92q12 0 24.5 -1t22 -2t22.5 -5t19 -6t21.5 -8t18.5 -7t21.5 -9.5t20.5 -8.5q66 -31 96 -31q60 0 78 84h207l-6 -34q-16 -113 -95 -194t-190 -81q-70 0 -150.5 39t-111.5 39 t-50 -24.5t-24 -57.5h-210zM621 526h176l10 359q2 43 5 92t6 107.5t5 91.5h-4q-72 -250 -86 -291z" />
<glyph unicode="&#xc4;" horiz-adv-x="1239" d="M16 0l615 1544h510l84 -1544h-432v199h-281l-66 -199h-430zM539 1829q12 66 68.5 115t123.5 49q70 0 114 -48.5t32 -119.5q-10 -70 -66.5 -118t-127.5 -48t-113 49t-31 121zM621 526h176l10 359q2 43 5 92t6 107.5t5 91.5h-4q-72 -250 -86 -291zM985 1829q12 66 68.5 115 t124.5 49q70 0 113.5 -48.5t31.5 -119.5q-10 -70 -66.5 -118t-127 -48t-112.5 49t-32 121z" />
<glyph unicode="&#xc5;" horiz-adv-x="1239" d="M16 0l615 1544h510l84 -1544h-432v199h-281l-66 -199h-430zM621 526h176l10 359q2 43 5 92t6 107.5t5 91.5h-4q-72 -250 -86 -291zM696.5 1821q14.5 92 89 158.5t164.5 66.5q96 0 151.5 -64.5t41.5 -158.5t-90 -159t-168 -65q-90 0 -146.5 65t-42 157zM825 1825 q-6 -41 16.5 -68.5t62.5 -27.5t72 27.5t38 68.5q6 39 -16.5 65.5t-61.5 26.5t-72 -26.5t-39 -65.5z" />
<glyph unicode="&#xc6;" horiz-adv-x="1449" d="M16 0l600 1544h1000l-57 -364h-416v-215h350l-59 -365h-287l4 -235h279l-58 -365h-596l4 197h-268l-63 -197h-433zM614 518h172l15 434q0 43 5 115t7 104h-4q-8 -23 -26.5 -96.5t-32.5 -122.5z" />
<glyph unicode="&#xc7;" horiz-adv-x="1093" d="M194.5 415.5q-24.5 147.5 4.5 346.5q23 143 68.5 262t103 201t128 145.5t138.5 100t139.5 60t125.5 32t102 8.5q120 0 208 -37l-71 -442q-41 47 -80 68.5t-100 21.5q-76 0 -138.5 -39t-100.5 -103.5t-61.5 -130t-33.5 -137.5q-14 -68 -11.5 -140.5t19 -132t66 -98.5 t122.5 -39q66 0 120 24t118 75l-94 -432q-135 -55 -260 -56q-131 0 -235.5 49.5t-178.5 147.5t-98.5 245.5zM432 -213q59 43 72 125l4 18h242q-31 -115 -99.5 -200.5t-173.5 -120.5z" />
<glyph unicode="&#xc8;" horiz-adv-x="1021" d="M123 0l244 1544h776l-58 -364h-358l-33 -215h322l-60 -365h-321l-37 -235h358l-57 -365h-776zM565 1999h320l53 -344h-223z" />
<glyph unicode="&#xc9;" horiz-adv-x="1021" d="M123 0l244 1544h776l-58 -364h-358l-33 -215h322l-60 -365h-321l-37 -235h358l-57 -365h-776zM623 1655l165 344h318l-258 -344h-225z" />
<glyph unicode="&#xca;" horiz-adv-x="1021" d="M123 0l244 1544h776l-58 -364h-358l-33 -215h322l-60 -365h-321l-37 -235h358l-57 -365h-776zM436 1671l221 305h359l100 -305h-237l-66 182l-131 -182h-246z" />
<glyph unicode="&#xcb;" horiz-adv-x="1021" d="M123 0l244 1544h776l-58 -364h-358l-33 -215h322l-60 -365h-321l-37 -235h358l-57 -365h-776zM410 1829q12 66 68.5 115t123.5 49q70 0 114 -48.5t32 -119.5q-10 -70 -66.5 -118t-127.5 -48t-113 49t-31 121zM856 1829q12 66 68.5 115t124.5 49q70 0 113.5 -48.5 t31.5 -119.5q-10 -70 -66.5 -118t-127 -48t-112.5 49t-32 121z" />
<glyph unicode="&#xcc;" horiz-adv-x="663" d="M123 0l244 1544h417l-243 -1544h-418zM385 1999h320l53 -344h-223z" />
<glyph unicode="&#xcd;" horiz-adv-x="663" d="M123 0l244 1544h417l-243 -1544h-418zM412 1655l166 344h317l-258 -344h-225z" />
<glyph unicode="&#xce;" horiz-adv-x="663" d="M123 0l244 1544h417l-243 -1544h-418zM256 1671l221 305h359l100 -305h-238l-65 182l-131 -182h-246z" />
<glyph unicode="&#xcf;" horiz-adv-x="663" d="M123 0l244 1544h417l-243 -1544h-418zM229 1829q12 66 68.5 115t124.5 49q70 0 114 -48.5t31 -119.5q-10 -70 -66.5 -118t-127 -48t-112.5 49t-32 121zM676 1829q12 66 68.5 115t123.5 49q70 0 114 -48.5t32 -119.5q-10 -70 -66.5 -118t-127 -48t-112.5 49t-32 121z" />
<glyph unicode="&#xd0;" horiz-adv-x="1280" d="M106 600l60 365h123l90 579h336q352 0 509.5 -204.5t100.5 -561.5q-123 -778 -825 -778h-365l94 600h-123zM612 373q68 0 121 39t85 101t50.5 121.5t28.5 123.5q8 61 9 123.5t-9 132t-51 109.5t-109 36z" />
<glyph unicode="&#xd1;" horiz-adv-x="1335" d="M123 0l244 1544h397l188 -930l4 4q4 57 8.5 168t10.5 198t18 167l62 393h401l-244 -1544h-401l-170 891l-4 -4q-4 -45 -10 -136.5t-13.5 -162t-17.5 -135.5l-72 -453h-401zM539 1665q10 123 88 215t198 92q12 0 24.5 -1t22 -2t22.5 -5l19.5 -6t21.5 -8t18 -7t21.5 -9.5 t20.5 -8.5q66 -31 97 -31q59 0 77 84h207l-6 -34q-16 -113 -95 -194t-190 -81q-70 0 -150.5 39t-111.5 39t-50 -24.5t-23 -57.5h-211z" />
<glyph unicode="&#xd2;" horiz-adv-x="1333" d="M182.5 581.5q0.5 94.5 16.5 190.5q18 117 56 228.5t99.5 216t141 182.5t188.5 125t229 47q104 0 186.5 -33t136.5 -91t91 -134t51.5 -166t14.5 -184.5t-15 -190.5q-18 -117 -56 -228.5t-100.5 -216t-141.5 -182t-187.5 -125t-230.5 -47.5q-102 0 -185.5 33t-137.5 91.5 t-90 134t-51.5 165.5t-15 184.5zM608 530q4 -41 15.5 -81.5t37 -63.5t62.5 -23q45 0 83 35t61.5 80t43 110.5t26.5 103.5t15 81q4 35 8.5 65.5t7.5 83t-1 93.5t-14.5 82t-36 63.5t-64.5 22.5q-43 0 -82 -35t-61.5 -80t-42 -110.5t-27.5 -103.5t-14 -81q-6 -35 -9.5 -65.5 t-7.5 -83t0 -93.5zM670 1999h319l53 -344h-223z" />
<glyph unicode="&#xd3;" horiz-adv-x="1333" d="M182.5 581.5q0.5 94.5 16.5 190.5q18 117 56 228.5t99.5 216t141 182.5t188.5 125t229 47q104 0 186.5 -33t136.5 -91t91 -134t51.5 -166t14.5 -184.5t-15 -190.5q-18 -117 -56 -228.5t-100.5 -216t-141.5 -182t-187.5 -125t-230.5 -47.5q-102 0 -185.5 33t-137.5 91.5 t-90 134t-51.5 165.5t-15 184.5zM608 530q4 -41 15.5 -81.5t37 -63.5t62.5 -23q45 0 83 35t61.5 80t43 110.5t26.5 103.5t15 81q4 35 8.5 65.5t7.5 83t-1 93.5t-14.5 82t-36 63.5t-64.5 22.5q-43 0 -82 -35t-61.5 -80t-42 -110.5t-27.5 -103.5t-14 -81q-6 -35 -9.5 -65.5 t-7.5 -83t0 -93.5zM799 1655l166 344h317l-258 -344h-225z" />
<glyph unicode="&#xd4;" horiz-adv-x="1333" d="M182.5 581.5q0.5 94.5 16.5 190.5q18 117 56 228.5t99.5 216t141 182.5t188.5 125t229 47q104 0 186.5 -33t136.5 -91t91 -134t51.5 -166t14.5 -184.5t-15 -190.5q-18 -117 -56 -228.5t-100.5 -216t-141.5 -182t-187.5 -125t-230.5 -47.5q-102 0 -185.5 33t-137.5 91.5 t-90 134t-51.5 165.5t-15 184.5zM592 1671l221 305h358l101 -305h-238l-65 182l-131 -182h-246zM608 530q4 -41 15.5 -81.5t37 -63.5t62.5 -23q45 0 83 35t61.5 80t43 110.5t26.5 103.5t15 81q4 35 8.5 65.5t7.5 83t-1 93.5t-14.5 82t-36 63.5t-64.5 22.5q-43 0 -82 -35 t-61.5 -80t-42 -110.5t-27.5 -103.5t-14 -81q-6 -35 -9.5 -65.5t-7.5 -83t0 -93.5z" />
<glyph unicode="&#xd5;" horiz-adv-x="1333" d="M182.5 581.5q0.5 94.5 16.5 190.5q18 117 56 228.5t99.5 216t141 182.5t188.5 125t229 47q104 0 186.5 -33t136.5 -91t91 -134t51.5 -166t14.5 -184.5t-15 -190.5q-18 -117 -56 -228.5t-100.5 -216t-141.5 -182t-187.5 -125t-230.5 -47.5q-102 0 -185.5 33t-137.5 91.5 t-90 134t-51.5 165.5t-15 184.5zM539 1665q10 123 88 215t198 92q12 0 24.5 -1t22 -2t22.5 -5l19.5 -6t21.5 -8t18 -7t21.5 -9.5t20.5 -8.5q66 -31 97 -31q59 0 77 84h207l-6 -34q-16 -113 -95 -194t-190 -81q-70 0 -150.5 39t-111.5 39t-50 -24.5t-23 -57.5h-211zM608 530 q4 -41 15.5 -81.5t37 -63.5t62.5 -23q45 0 83 35t61.5 80t43 110.5t26.5 103.5t15 81q4 35 8.5 65.5t7.5 83t-1 93.5t-14.5 82t-36 63.5t-64.5 22.5q-43 0 -82 -35t-61.5 -80t-42 -110.5t-27.5 -103.5t-14 -81q-6 -35 -9.5 -65.5t-7.5 -83t0 -93.5z" />
<glyph unicode="&#xd6;" horiz-adv-x="1333" d="M182.5 581.5q0.5 94.5 16.5 190.5q18 117 56 228.5t99.5 216t141 182.5t188.5 125t229 47q104 0 186.5 -33t136.5 -91t91 -134t51.5 -166t14.5 -184.5t-15 -190.5q-18 -117 -56 -228.5t-100.5 -216t-141.5 -182t-187.5 -125t-230.5 -47.5q-102 0 -185.5 33t-137.5 91.5 t-90 134t-51.5 165.5t-15 184.5zM565 1829q12 66 68.5 115t124.5 49q70 0 113.5 -48.5t31.5 -119.5q-10 -70 -66.5 -118t-127 -48t-112.5 49t-32 121zM608 530q4 -41 15.5 -81.5t37 -63.5t62.5 -23q45 0 83 35t61.5 80t43 110.5t26.5 103.5t15 81q4 35 8.5 65.5t7.5 83 t-1 93.5t-14.5 82t-36 63.5t-64.5 22.5q-43 0 -82 -35t-61.5 -80t-42 -110.5t-27.5 -103.5t-14 -81q-6 -35 -9.5 -65.5t-7.5 -83t0 -93.5zM1012 1829q12 66 68.5 115t123.5 49q70 0 114 -48.5t32 -119.5q-10 -70 -66.5 -118t-127.5 -48t-113 49t-31 121z" />
<glyph unicode="&#xd7;" horiz-adv-x="1024" d="M106 246l324 278l-235 279l194 166l232 -279l323 279l139 -166l-319 -279l231 -278l-192 -166l-234 278l-321 -278z" />
<glyph unicode="&#xd8;" horiz-adv-x="1333" d="M51 55l178 213q-78 213 -30 504q18 117 56 228.5t99.5 216t141 182.5t188.5 125t229 47q213 0 347 -152l124 150l136 -105l-168 -198q70 -221 26 -494q-18 -117 -56 -228.5t-100.5 -216t-141.5 -182t-187.5 -125t-230.5 -47.5q-215 0 -343 138l-135 -158zM602 690h4 l338 410q-4 43 -29.5 69.5t-64.5 26.5q-166 0 -240 -463zM625 440q4 -39 28.5 -65.5t63.5 -26.5q55 0 101 48t74 123t43 132.5t23 110.5l15 92h-4z" />
<glyph unicode="&#xd9;" horiz-adv-x="1273" d="M186 342q-4 59 0 102t11 91l159 1009h418l-153 -971q-14 -100 -11 -135q10 -76 84 -76q78 0 109 74q16 35 31 135l153 973h418l-160 -1009q-10 -70 -27.5 -131.5t-61.5 -145.5t-106.5 -142.5t-171 -100.5t-245.5 -42q-100 0 -178 21.5t-126 56.5t-80 85t-45.5 98.5 t-17.5 107.5zM639 1999h319l54 -344h-224z" />
<glyph unicode="&#xda;" horiz-adv-x="1273" d="M186 342q-4 59 0 102t11 91l159 1009h418l-153 -971q-14 -100 -11 -135q10 -76 84 -76q78 0 109 74q16 35 31 135l153 973h418l-160 -1009q-10 -70 -27.5 -131.5t-61.5 -145.5t-106.5 -142.5t-171 -100.5t-245.5 -42q-100 0 -178 21.5t-126 56.5t-80 85t-45.5 98.5 t-17.5 107.5zM768 1655l166 344h317l-258 -344h-225z" />
<glyph unicode="&#xdb;" horiz-adv-x="1273" d="M186 342q-4 59 0 102t11 91l159 1009h418l-153 -971q-14 -100 -11 -135q10 -76 84 -76q78 0 109 74q16 35 31 135l153 973h418l-160 -1009q-10 -70 -27.5 -131.5t-61.5 -145.5t-106.5 -142.5t-171 -100.5t-245.5 -42q-100 0 -178 21.5t-126 56.5t-80 85t-45.5 98.5 t-17.5 107.5zM561 1671l221 305h359l100 -305h-237l-66 182l-131 -182h-246z" />
<glyph unicode="&#xdc;" horiz-adv-x="1273" d="M186 342q-4 59 0 102t11 91l159 1009h418l-153 -971q-14 -100 -11 -135q10 -76 84 -76q78 0 109 74q16 35 31 135l153 973h418l-160 -1009q-10 -70 -27.5 -131.5t-61.5 -145.5t-106.5 -142.5t-171 -100.5t-245.5 -42q-100 0 -178 21.5t-126 56.5t-80 85t-45.5 98.5 t-17.5 107.5zM535 1829q12 66 68 115t124 49q70 0 114 -48.5t31 -119.5q-10 -70 -66 -118t-127 -48t-113 49t-31 121zM981 1829q12 66 68.5 115t124.5 49q70 0 113.5 -48.5t31.5 -119.5q-10 -70 -66.5 -118t-127 -48t-112.5 49t-32 121z" />
<glyph unicode="&#xdd;" horiz-adv-x="1189" d="M260 1544h434l70 -477h4l219 477h432l-499 -889l-105 -655h-418l105 655zM727 1655l166 344h317l-258 -344h-225z" />
<glyph unicode="&#xde;" horiz-adv-x="1196" d="M123 0l244 1544h417l-30 -205q84 0 155.5 -10t139 -34.5t113.5 -64.5t81 -98.5t41 -136t-6 -180.5q-23 -147 -82 -250.5t-151.5 -161t-204 -82t-252.5 -20.5l-47 -301h-418zM643 649q86 -4 143.5 41t71.5 131q10 76 -22.5 129.5t-104.5 53.5l-33 -3z" />
<glyph unicode="&#xdf;" horiz-adv-x="1255" d="M172 0l121 760h-111l51 321h111q18 123 48 208t93 161q80 96 198 150.5t237 54.5q188 0 313 -120t96 -304q-16 -113 -85.5 -205t-174.5 -108v-5q86 -6 139.5 -67.5t68.5 -143t1 -167.5q-37 -238 -205 -399t-401 -161l55 344q106 18 137 211q4 41 6 88.5t-16 89.5t-57 52 l51 321q80 20 94 113q8 41 -11.5 71.5t-60.5 30.5q-33 0 -55 -13t-33.5 -39.5t-16.5 -45t-9 -53.5l-183 -1145h-401z" />
<glyph unicode="&#xe0;" horiz-adv-x="1165" d="M133 409.5q4 69.5 17 141.5q10 70 29.5 139.5t55 146t80.5 134t114 95.5t146 38q168 0 230 -193l6 4l10 166h408l-172 -1081h-402l47 178l-4 4q-55 -92 -135 -148.5t-174 -56.5q-80 0 -134 40t-79.5 100.5t-36 141.5t-6.5 150.5zM549 383q6 -74 57 -74q68 0 103 99 q20 55 34.5 147t12.5 131q-4 88 -64 88q-61 0 -102 -108q-18 -57 -35 -160q-10 -72 -6 -123zM567 1567h320l55 -344h-223z" />
<glyph unicode="&#xe1;" horiz-adv-x="1165" d="M133 409.5q4 69.5 17 141.5q10 70 29.5 139.5t55 146t80.5 134t114 95.5t146 38q168 0 230 -193l6 4l10 166h408l-172 -1081h-402l47 178l-4 4q-55 -92 -135 -148.5t-174 -56.5q-80 0 -134 40t-79.5 100.5t-36 141.5t-6.5 150.5zM549 383q6 -74 57 -74q68 0 103 99 q20 55 34.5 147t12.5 131q-4 88 -64 88q-61 0 -102 -108q-18 -57 -35 -160q-10 -72 -6 -123zM647 1223l164 344h317l-256 -344h-225z" />
<glyph unicode="&#xe2;" horiz-adv-x="1165" d="M133 409.5q4 69.5 17 141.5q10 70 29.5 139.5t55 146t80.5 134t114 95.5t146 38q168 0 230 -193l6 4l10 166h408l-172 -1081h-402l47 178l-4 4q-55 -92 -135 -148.5t-174 -56.5q-80 0 -134 40t-79.5 100.5t-36 141.5t-6.5 150.5zM440 1239l219 305h359l102 -305h-237 l-66 182l-131 -182h-246zM549 383q6 -74 57 -74q68 0 103 99q20 55 34.5 147t12.5 131q-4 88 -64 88q-61 0 -102 -108q-18 -57 -35 -160q-10 -72 -6 -123z" />
<glyph unicode="&#xe3;" horiz-adv-x="1165" d="M133 409.5q4 69.5 17 141.5q10 70 29.5 139.5t55 146t80.5 134t114 95.5t146 38q168 0 230 -193l6 4l10 166h408l-172 -1081h-402l47 178l-4 4q-55 -92 -135 -148.5t-174 -56.5q-80 0 -134 40t-79.5 100.5t-36 141.5t-6.5 150.5zM385 1233q12 123 89 215t198 92 q12 0 24.5 -1t21.5 -2t23.5 -5t19.5 -6t20.5 -8.5t19.5 -7.5t21.5 -9t19.5 -8q66 -31 96 -31q62 0 80 84h207l-6 -35q-18 -113 -96.5 -193.5t-188.5 -80.5q-72 0 -153 39t-109 39q-33 0 -51.5 -24.5t-24.5 -57.5h-211zM549 383q6 -74 57 -74q68 0 103 99q20 55 34.5 147 t12.5 131q-4 88 -64 88q-61 0 -102 -108q-18 -57 -35 -160q-10 -72 -6 -123z" />
<glyph unicode="&#xe4;" horiz-adv-x="1165" d="M133 409.5q4 69.5 17 141.5q10 70 29.5 139.5t55 146t80.5 134t114 95.5t146 38q168 0 230 -193l6 4l10 166h408l-172 -1081h-402l47 178l-4 4q-55 -92 -135 -148.5t-174 -56.5q-80 0 -134 40t-79.5 100.5t-36 141.5t-6.5 150.5zM414 1397q10 66 67.5 115t124.5 49 q70 0 113 -48.5t33 -119.5q-12 -70 -68.5 -118t-127.5 -48t-112 50t-30 120zM549 383q6 -74 57 -74q68 0 103 99q20 55 34.5 147t12.5 131q-4 88 -64 88q-61 0 -102 -108q-18 -57 -35 -160q-10 -72 -6 -123zM860 1397q10 66 67.5 115t125.5 49q70 0 112.5 -48.5t32.5 -119.5 q-12 -70 -68.5 -118t-127 -48t-111.5 50t-31 120z" />
<glyph unicode="&#xe5;" horiz-adv-x="1165" d="M133 409.5q4 69.5 17 141.5q10 70 29.5 139.5t55 146t80.5 134t114 95.5t146 38q168 0 230 -193l6 4l10 166h408l-172 -1081h-402l47 178l-4 4q-55 -92 -135 -148.5t-174 -56.5q-80 0 -134 40t-79.5 100.5t-36 141.5t-6.5 150.5zM549 383q6 -74 57 -74q68 0 103 99 q20 55 34.5 147t12.5 131q-4 88 -64 88q-61 0 -102 -108q-18 -57 -35 -160q-10 -72 -6 -123zM579.5 1388.5q14.5 92.5 89.5 159t167 66.5q96 0 151 -64.5t41 -158.5q-16 -94 -92 -159t-168 -65q-90 0 -146.5 64.5t-42 157zM711 1393q-6 -41 16.5 -69t62 -28t71.5 28t38 69 q6 39 -16.5 65.5t-61.5 26.5t-71.5 -26.5t-38.5 -65.5z" />
<glyph unicode="&#xe6;" horiz-adv-x="1699" d="M117 348q27 168 151.5 258t296.5 90q98 0 201 -22q4 72 -51.5 101.5t-136.5 29.5q-150 0 -281 -62l51 314q184 47 334 47q213 0 311 -107q160 106 338 107q121 0 208 -48t130 -129t58.5 -185.5t-5.5 -217.5l-12 -67h-590l-2 -23q-14 -143 70 -143q35 0 62.5 21.5 t37.5 54.5h393q-61 -184 -206.5 -287t-331.5 -103q-98 0 -170 25t-137 86q-180 -111 -369 -111q-168 0 -272.5 102.5t-77.5 268.5zM508 346q-8 -45 18.5 -69.5t71.5 -24.5q47 0 79 24.5t39 70.5t-17.5 70.5t-73.5 24.5q-45 0 -78 -25.5t-39 -70.5zM1155 674h186q6 55 -10 96 t-63 41t-77 -44t-36 -93z" />
<glyph unicode="&#xe7;" horiz-adv-x="749" d="M147 545q37 231 205 395t393 164q27 0 84 -4l-55 -350q-88 -4 -142 -56.5t-69 -140.5q-12 -74 19.5 -137.5t101.5 -63.5h27l-58 -366q-12 0 -50 -4.5t-60 -4.5q-150 0 -249 83t-134 210t-13 275zM236 -213q59 43 71 125l4 18h242q-31 -115 -99.5 -200.5t-172.5 -120.5z " />
<glyph unicode="&#xe8;" horiz-adv-x="1114" d="M143 520q25 158 103 289t209 213t290 82q238 0 338 -176q39 -68 52.5 -151t9.5 -152.5t-21 -167.5h-589q-27 -166 67 -166q35 0 62.5 21.5t37.5 54.5h394q-61 -184 -207 -287t-332 -103q-242 0 -347.5 148.5t-66.5 394.5zM489 1567h320l55 -344h-223zM569 674h187 q6 55 -10.5 96t-63.5 41t-77 -44t-36 -93z" />
<glyph unicode="&#xe9;" horiz-adv-x="1114" d="M143 520q25 158 103 289t209 213t290 82q238 0 338 -176q39 -68 52.5 -151t9.5 -152.5t-21 -167.5h-589q-27 -166 67 -166q35 0 62.5 21.5t37.5 54.5h394q-61 -184 -207 -287t-332 -103q-242 0 -347.5 148.5t-66.5 394.5zM569 674h187q6 55 -10.5 96t-63.5 41t-77 -44 t-36 -93zM621 1223l163 344h318l-256 -344h-225z" />
<glyph unicode="&#xea;" horiz-adv-x="1114" d="M143 520q25 158 103 289t209 213t290 82q238 0 338 -176q39 -68 52.5 -151t9.5 -152.5t-21 -167.5h-589q-27 -166 67 -166q35 0 62.5 21.5t37.5 54.5h394q-61 -184 -207 -287t-332 -103q-242 0 -347.5 148.5t-66.5 394.5zM414 1239l219 305h358l103 -305h-238l-65 182 l-132 -182h-245zM569 674h187q6 55 -10.5 96t-63.5 41t-77 -44t-36 -93z" />
<glyph unicode="&#xeb;" horiz-adv-x="1114" d="M143 520q25 158 103 289t209 213t290 82q238 0 338 -176q39 -68 52.5 -151t9.5 -152.5t-21 -167.5h-589q-27 -166 67 -166q35 0 62.5 21.5t37.5 54.5h394q-61 -184 -207 -287t-332 -103q-242 0 -347.5 148.5t-66.5 394.5zM387 1397q10 66 67.5 115t125.5 49 q70 0 112.5 -48.5t32.5 -119.5q-12 -70 -68.5 -118t-127 -48t-111.5 50t-31 120zM569 674h187q6 55 -10.5 96t-63.5 41t-77 -44t-36 -93zM834 1397q10 66 67 115t125 49q70 0 113 -48.5t32 -119.5q-12 -70 -68 -118t-127 -48t-112 50t-30 120z" />
<glyph unicode="&#xec;" horiz-adv-x="618" d="M109 0l172 1081h401l-172 -1081h-401zM262 1567h320l55 -344h-223z" />
<glyph unicode="&#xed;" horiz-adv-x="618" d="M109 0l172 1081h401l-172 -1081h-401zM352 1223l164 344h318l-256 -344h-226z" />
<glyph unicode="&#xee;" horiz-adv-x="618" d="M109 0l172 1081h401l-172 -1081h-401zM166 1239l219 305h358l103 -305h-238l-65 182l-131 -182h-246z" />
<glyph unicode="&#xef;" horiz-adv-x="618" d="M109 0l172 1081h401l-172 -1081h-401zM139 1397q10 66 67.5 115t125.5 49q70 0 112.5 -48.5t32.5 -119.5q-12 -70 -68.5 -118t-127 -48t-111.5 50t-31 120zM586 1397q10 66 67.5 115t124.5 49q70 0 113 -48.5t33 -119.5q-12 -70 -68.5 -118t-127.5 -48t-112 50t-30 120z " />
<glyph unicode="&#xf0;" horiz-adv-x="1128" d="M147 539q20 121 66.5 221t118 178t175 117t226.5 26q-45 102 -117 197l-165 -86l-74 127l155 82q-10 16 -66 75.5t-63 67.5l291 131q58 -53 119 -131l170 86l84 -123l-166 -82q51 -68 88 -127t74 -130.5t59.5 -142.5t37 -149.5t12 -165.5t-20.5 -180 q-47 -244 -200.5 -398.5t-395.5 -154.5q-160 0 -262.5 77t-137 202t-8.5 283zM533.5 470q-1.5 -38 2 -85t23 -76.5t53 -29.5t63.5 30.5t48 76.5t28.5 84t16.5 71q45 283 -72 282q-111 0 -155 -282q-6 -33 -7.5 -71z" />
<glyph unicode="&#xf1;" horiz-adv-x="1177" d="M109 0l172 1081h401l-43 -200l4 -4q45 94 131 160.5t180 66.5q84 0 138.5 -34t75 -89t25.5 -125t-11 -143l-113 -713h-401l86 547q16 70 7 114t-56 44q-53 0 -75 -44.5t-38 -140.5l-82 -520h-401zM391 1233q12 123 89 215t198 92q12 0 24.5 -1t21.5 -2t23.5 -5t19.5 -6 t20.5 -8.5t19.5 -7.5t21.5 -9t19.5 -8q66 -31 96 -31q62 0 80 84h207l-6 -35q-18 -113 -96 -193.5t-189 -80.5q-72 0 -152.5 39t-109.5 39q-33 0 -51.5 -24.5t-24.5 -57.5h-211z" />
<glyph unicode="&#xf2;" horiz-adv-x="1130" d="M142.5 324.5q-17.5 101.5 4.5 216.5q18 117 64.5 217t119 178t178 123t231.5 45t217.5 -45t137.5 -123t64.5 -179.5t-4.5 -215.5q-18 -117 -65.5 -217.5t-119 -178t-177 -123t-231.5 -45.5t-218 45.5t-138 123t-63.5 179zM508 1567h319l56 -344h-224zM541 541 q-41 -262 69.5 -262t151.5 262t-69.5 262t-151.5 -262z" />
<glyph unicode="&#xf3;" horiz-adv-x="1130" d="M142.5 324.5q-17.5 101.5 4.5 216.5q18 117 64.5 217t119 178t178 123t231.5 45t217.5 -45t137.5 -123t64.5 -179.5t-4.5 -215.5q-18 -117 -65.5 -217.5t-119 -178t-177 -123t-231.5 -45.5t-218 45.5t-138 123t-63.5 179zM541 541q-41 -262 69.5 -262t151.5 262 t-69.5 262t-151.5 -262zM618 1223l164 344h318l-256 -344h-226z" />
<glyph unicode="&#xf4;" horiz-adv-x="1130" d="M142.5 324.5q-17.5 101.5 4.5 216.5q18 117 64.5 217t119 178t178 123t231.5 45t217.5 -45t137.5 -123t64.5 -179.5t-4.5 -215.5q-18 -117 -65.5 -217.5t-119 -178t-177 -123t-231.5 -45.5t-218 45.5t-138 123t-63.5 179zM422 1239l219 305h358l103 -305h-238l-65 182 l-131 -182h-246zM541 541q-41 -262 69.5 -262t151.5 262t-69.5 262t-151.5 -262z" />
<glyph unicode="&#xf5;" horiz-adv-x="1130" d="M142.5 324.5q-17.5 101.5 4.5 216.5q18 117 64.5 217t119 178t178 123t231.5 45t217.5 -45t137.5 -123t64.5 -179.5t-4.5 -215.5q-18 -117 -65.5 -217.5t-119 -178t-177 -123t-231.5 -45.5t-218 45.5t-138 123t-63.5 179zM367 1233q12 123 88.5 215t197.5 92 q12 0 24.5 -1t22 -2t23.5 -5t19.5 -6t20.5 -8.5t19 -7.5t21.5 -9t19.5 -8q66 -31 97 -31q61 0 79 84h207l-6 -35q-18 -113 -96 -193.5t-189 -80.5q-72 0 -152.5 39t-109.5 39q-33 0 -51 -24.5t-24 -57.5h-211zM541 541q-41 -262 69.5 -262t151.5 262t-69.5 262t-151.5 -262z " />
<glyph unicode="&#xf6;" horiz-adv-x="1130" d="M142.5 324.5q-17.5 101.5 4.5 216.5q18 117 64.5 217t119 178t178 123t231.5 45t217.5 -45t137.5 -123t64.5 -179.5t-4.5 -215.5q-18 -117 -65.5 -217.5t-119 -178t-177 -123t-231.5 -45.5t-218 45.5t-138 123t-63.5 179zM395 1397q10 66 67.5 115t125.5 49 q70 0 112.5 -48.5t32.5 -119.5q-12 -70 -68.5 -118t-127 -48t-111.5 50t-31 120zM541 541q-41 -262 69.5 -262t151.5 262t-69.5 262t-151.5 -262zM842 1397q10 66 67.5 115t124.5 49q70 0 113 -48.5t33 -119.5q-12 -70 -68.5 -118t-127.5 -48t-112 50t-30 120z" />
<glyph unicode="&#xf7;" horiz-adv-x="1024" d="M117 406l39 235h919l-39 -235h-919zM354 27l37 235h326l-37 -235h-326zM475 784l37 236h326l-37 -236h-326z" />
<glyph unicode="&#xf8;" horiz-adv-x="1130" d="M66 4l133 143q-90 145 -52 394q18 117 64.5 217t119 178t178 123t230.5 45q135 0 228 -53l137 157l141 -123l-145 -155q94 -145 55 -389q-18 -117 -65.5 -217.5t-119 -178t-177 -123t-232.5 -45.5q-133 0 -227 52l-137 -152zM541 541q-41 -262 69.5 -262t151.5 262 t-69.5 262t-151.5 -262z" />
<glyph unicode="&#xf9;" horiz-adv-x="1157" d="M168 444l102 637h402l-92 -581q-18 -96 -10 -141.5t57 -45.5q51 0 71.5 40t38.5 147l92 581h402l-103 -637q-37 -233 -182 -350t-373 -117q-231 0 -335.5 122t-69.5 345zM532 1567h320l55 -344h-223z" />
<glyph unicode="&#xfa;" horiz-adv-x="1157" d="M168 444l102 637h402l-92 -581q-18 -96 -10 -141.5t57 -45.5q51 0 71.5 40t38.5 147l92 581h402l-103 -637q-37 -233 -182 -350t-373 -117q-231 0 -335.5 122t-69.5 345zM623 1223l163 344h318l-256 -344h-225z" />
<glyph unicode="&#xfb;" horiz-adv-x="1157" d="M168 444l102 637h402l-92 -581q-18 -96 -10 -141.5t57 -45.5q51 0 71.5 40t38.5 147l92 581h402l-103 -637q-37 -233 -182 -350t-373 -117q-231 0 -335.5 122t-69.5 345zM436 1239l219 305h359l102 -305h-237l-66 182l-131 -182h-246z" />
<glyph unicode="&#xfc;" horiz-adv-x="1157" d="M168 444l102 637h402l-92 -581q-18 -96 -10 -141.5t57 -45.5q51 0 71.5 40t38.5 147l92 581h402l-103 -637q-37 -233 -182 -350t-373 -117q-231 0 -335.5 122t-69.5 345zM410 1397q10 66 67.5 115t124.5 49q70 0 113 -48.5t33 -119.5q-12 -70 -68.5 -118t-127.5 -48 t-112 50t-30 120zM856 1397q10 66 67.5 115t125.5 49q70 0 112.5 -48.5t32.5 -119.5q-12 -70 -68.5 -118t-127 -48t-111.5 50t-31 120z" />
<glyph unicode="&#xfd;" horiz-adv-x="1118" d="M92 -483l266 528l-155 1036h403l19 -372q2 -39 4 -120t4 -122h4q10 27 34.5 112t43.5 130l143 372h402l-752 -1564h-416zM633 1223l164 344h317l-256 -344h-225z" />
<glyph unicode="&#xfe;" horiz-adv-x="1161" d="M33 -483l313 1978h402l-62 -383q-4 -33 -39 -180l4 -4q102 176 271 176q80 0 136 -38t86 -97.5t43 -136t11 -149.5t-13 -142.5t-30.5 -140t-55.5 -149.5t-82 -137.5t-113.5 -97.5t-147.5 -39q-158 0 -230 170l-4 -4l-6 -77l-14 -123l-68 -426h-401zM576.5 415 q1.5 -44 16.5 -72t44 -28q33 0 59.5 29t42 74t23.5 76.5t12 64.5q4 29 6 59.5t-1 68.5t-20.5 62.5t-45.5 24.5q-31 0 -55.5 -25.5t-39 -66.5t-21.5 -70.5t-12 -60.5t-7.5 -61.5t-1 -74.5z" />
<glyph unicode="&#xff;" horiz-adv-x="1118" d="M92 -483l266 528l-155 1036h403l19 -372q2 -39 4 -120t4 -122h4q10 27 34.5 112t43.5 130l143 372h402l-752 -1564h-416zM389 1397q10 66 67.5 115t125.5 49q70 0 112.5 -48.5t32.5 -119.5q-12 -70 -68.5 -118t-127 -48t-111.5 50t-31 120zM836 1397q10 66 67.5 115 t124.5 49q70 0 113 -48.5t33 -119.5q-12 -70 -68.5 -118t-127.5 -48t-112 50t-30 120z" />
<glyph unicode="&#x152;" horiz-adv-x="1689" d="M181 567.5q1 106.5 20 216.5q16 106 50 211t93 210.5t133 185t179.5 130t222.5 50.5q37 0 72.5 -4t84.5 -12.5t70 -10.5h715l-58 -364h-342l-32 -215h309l-60 -365h-309l-37 -235h346l-57 -365h-739q-109 -27 -221 -27q-121 0 -210 52.5t-136.5 134.5t-71 191.5 t-22.5 216zM608 520q16 -162 119 -162q41 0 76 37t56.5 84t41 115t26.5 106.5t15 81.5q63 403 -82 404q-104 0 -174 -180q-41 -104 -63 -248q-23 -141 -15 -238z" />
<glyph unicode="&#x153;" horiz-adv-x="1705" d="M147 547q39 244 197 400.5t389 156.5q168 0 295 -98q145 98 320 98q156 0 252 -84t124.5 -212t4.5 -284l-13 -67h-590l-2 -23q-10 -53 5.5 -98t64.5 -45q35 0 62.5 21.5t37.5 54.5h394q-61 -184 -206 -287t-323 -103q-174 0 -299 97q-139 -96 -291 -97q-244 0 -352 157 t-70 413zM533.5 470q-1.5 -38 2 -85t23 -76.5t53 -29.5t63.5 30.5t48 76.5t28.5 84t16.5 71q4 35 6 71.5t-1 83.5t-23.5 77t-57.5 30q-33 0 -61.5 -30t-47 -77t-28.5 -85t-15 -70.5t-6.5 -70.5zM1161 674h187q6 55 -10.5 96t-63.5 41t-77 -44t-36 -93z" />
<glyph unicode="&#x178;" horiz-adv-x="1189" d="M260 1544h434l70 -477h4l219 477h432l-499 -889l-105 -655h-418l105 655zM494 1829q12 66 68 115t124 49q70 0 114 -48.5t31 -119.5q-10 -70 -66 -118t-127 -48t-113 49t-31 121zM940 1829q12 66 68.5 115t124.5 49q70 0 113.5 -48.5t31.5 -119.5q-10 -70 -66.5 -118 t-127 -48t-112.5 49t-32 121z" />
<glyph unicode="&#x2c6;" horiz-adv-x="778" d="M246 1239l219 305h358l103 -305h-238l-65 182l-131 -182h-246z" />
<glyph unicode="&#x2dc;" horiz-adv-x="778" d="M190 1233q12 123 89 215t198 92q12 0 24.5 -1t21.5 -2t23.5 -5t19.5 -6t20.5 -8.5t19.5 -7.5t21.5 -9t19.5 -8q66 -31 96 -31q62 0 80 84h207l-6 -35q-18 -113 -96 -193.5t-189 -80.5q-72 0 -152.5 39t-109.5 39q-33 0 -51 -24.5t-25 -57.5h-211z" />
<glyph unicode="&#x2000;" horiz-adv-x="1023" />
<glyph unicode="&#x2001;" horiz-adv-x="2046" />
<glyph unicode="&#x2002;" horiz-adv-x="1023" />
<glyph unicode="&#x2003;" horiz-adv-x="2046" />
<glyph unicode="&#x2004;" horiz-adv-x="682" />
<glyph unicode="&#x2005;" horiz-adv-x="511" />
<glyph unicode="&#x2006;" horiz-adv-x="341" />
<glyph unicode="&#x2007;" horiz-adv-x="341" />
<glyph unicode="&#x2008;" horiz-adv-x="255" />
<glyph unicode="&#x2009;" horiz-adv-x="409" />
<glyph unicode="&#x200a;" horiz-adv-x="113" />
<glyph unicode="&#x2010;" horiz-adv-x="657" d="M156 489l53 332h502l-54 -332h-501z" />
<glyph unicode="&#x2011;" horiz-adv-x="657" d="M156 489l53 332h502l-54 -332h-501z" />
<glyph unicode="&#x2012;" horiz-adv-x="657" d="M156 489l53 332h502l-54 -332h-501z" />
<glyph unicode="&#x2013;" horiz-adv-x="1024" d="M78 489l53 332h1024l-53 -332h-1024z" />
<glyph unicode="&#x2014;" horiz-adv-x="2048" d="M344 489l53 332h1516l-53 -332h-1516z" />
<glyph unicode="&#x2018;" horiz-adv-x="753" d="M205 803l385 741h330l-306 -741h-409z" />
<glyph unicode="&#x2019;" horiz-adv-x="753" d="M205 803l305 741h410l-388 -741h-327z" />
<glyph unicode="&#x201a;" horiz-adv-x="753" d="M27 -326l305 744h409l-387 -744h-327z" />
<glyph unicode="&#x201c;" horiz-adv-x="1255" d="M205 803l385 741h330l-306 -741h-409zM707 803l387 741h327l-305 -741h-409z" />
<glyph unicode="&#x201d;" horiz-adv-x="1255" d="M205 803l305 741h410l-388 -741h-327zM707 803l305 741h409l-385 -741h-329z" />
<glyph unicode="&#x201e;" horiz-adv-x="1255" d="M27 -326l305 744h409l-387 -744h-327zM528 -326l306 744h409l-385 -744h-330z" />
<glyph unicode="&#x2022;" horiz-adv-x="860" d="M166 776q25 160 155 272.5t291 112.5q162 0 258.5 -113.5t71.5 -271.5q-25 -162 -158 -276.5t-295 -114.5t-255 114.5t-68 276.5z" />
<glyph unicode="&#x2026;" horiz-adv-x="2048" d="M141 215q14 94 92 162.5t170 68.5q100 0 161 -67.5t44 -169.5q-14 -96 -94 -164t-178 -68t-154.5 70t-40.5 168zM823 215q14 94 92 162.5t170 68.5q100 0 161 -67.5t44 -169.5q-14 -96 -94 -164t-178 -68t-154.5 70t-40.5 168zM1505 215q14 94 92 162.5t170 68.5 q100 0 161 -67.5t44 -169.5q-14 -96 -94 -164t-178 -68t-154.5 70t-40.5 168z" />
<glyph unicode="&#x202f;" horiz-adv-x="409" />
<glyph unicode="&#x2039;" horiz-adv-x="686" d="M182 655l424 465l158 -135l-313 -330l208 -329l-200 -136z" />
<glyph unicode="&#x203a;" horiz-adv-x="686" d="M129 326l315 329l-211 330l203 135l277 -465l-424 -465z" />
<glyph unicode="&#x205f;" horiz-adv-x="511" />
<glyph unicode="&#x20ac;" d="M164 530l55 168h121l8 56q10 59 17 88h-152l55 168h148q51 135 133 239.5t167 162.5t180 96t167 50.5t135 12.5q129 0 221 -37l-121 -363q-72 43 -172 43q-215 0 -333 -204h446l-55 -168h-457q-6 -25 -12 -70q-8 -49 -10 -74h430l-56 -168h-362q49 -201 256 -200 q111 0 201 43l-58 -365q-111 -35 -217 -35q-242 0 -397.5 143.5t-167.5 413.5h-170z" />
<glyph unicode="&#x2122;" horiz-adv-x="1761" d="M180 1364l29 180h686l-29 -180h-243l-103 -647h-209l103 647h-234zM854 717l131 827h301l105 -510h4l264 510h301l-131 -827h-191l103 647h-4l-332 -647h-127l-127 647h-4l-103 -647h-190z" />
<glyph unicode="&#x25fc;" horiz-adv-x="1085" d="M0 0v1085h1085v-1085h-1085z" />
<glyph unicode="&#xfb01;" horiz-adv-x="1402" d="M178 0l121 760h-117l51 321h117l19 125q35 217 141 333t281 116q96 0 190 -29l-59 -371q-43 37 -76 37q-18 0 -31.5 -7t-21 -16t-14.5 -30.5t-9 -38t-8 -51.5q-2 -10 -2 -16l-8 -52h143l-51 -321h-144l-120 -760h-402zM893 0l172 1081h401l-172 -1081h-401zM1085 1421 q14 96 94.5 165t174.5 69q98 0 157.5 -66.5t44 -165t-95.5 -168t-176 -69.5q-98 0 -156.5 68.5t-42.5 166.5z" />
<glyph unicode="&#xfb02;" horiz-adv-x="1402" d="M178 0l121 760h-117l51 321h117l19 125q35 217 141 333t281 116q96 0 190 -29l-59 -371q-43 37 -76 37q-39 0 -56.5 -36.5t-29.5 -122.5l-8 -52h143l-51 -321h-144l-120 -760h-402zM893 0l258 1632h401l-258 -1632h-401z" />
</font>
</defs>
</svg>
